<svg id="Layer_1" data-name="Layer 1" xmlns="http://www.w3.org/2000/svg" viewBox="0 0 45 45"><defs><style>.cls-1{fill:#aebdc3;}.cls-2{fill:#ced6da;}.cls-3{fill:#8ea2ac;}.cls-4{fill:#ff9d08;}.cls-5{fill:#f1f1f3;}.cls-6{fill:none;}</style></defs><g id="Layer_2" data-name="Layer 2"><g id="Objects"><path class="cls-1" d="M33,30.52a4.49,4.49,0,0,0-1.75-1.68A9.39,9.39,0,0,0,28,27.78l-.4-.22H25l-.39.21a9.14,9.14,0,0,0-3.3,1.07,4.35,4.35,0,0,0-1.74,1.69l-.29.16v1.6a3.51,3.51,0,0,0,2.06,2.83,10.87,10.87,0,0,0,9.87,0,3.48,3.48,0,0,0,2-2.82V30.69Z"/><path class="cls-2" d="M31.22,27.79a10.93,10.93,0,0,0-9.87,0c-2.72,1.58-2.71,4.14,0,5.72a10.87,10.87,0,0,0,9.87,0c2.72-1.58,2.7-4.14,0-5.72"/><path class="cls-3" d="M26.27,27.08a9.47,9.47,0,0,0-4.69,1.12,3,3,0,0,0-1.79,2.44,3,3,0,0,0,1.82,2.46,9.55,9.55,0,0,0,4.71,1.12h0A9.47,9.47,0,0,0,31,33.1a3,3,0,0,0,1.8-2.44A3.09,3.09,0,0,0,31,28.2,9.55,9.55,0,0,0,26.27,27.08Z"/><path class="cls-2" d="M26.54,27.39a9.47,9.47,0,0,0-4.69,1.12,3,3,0,0,0-1.8,2.41,3,3,0,0,0,1.83,2.46,9.62,9.62,0,0,0,4.7,1.12h0a9.47,9.47,0,0,0,4.69-1.12,3,3,0,0,0,1.8-2.44,3,3,0,0,0-1.83-2.46A9.62,9.62,0,0,0,26.54,27.39Z"/><path class="cls-4" d="M30,28.7l-.5-.29a.36.36,0,0,0-.35,0l-.4.23a3.89,3.89,0,0,0-1.62-.3,2.92,2.92,0,0,0-1.38.38c-.41.23-.61.47-.6.71a1.15,1.15,0,0,0,.37.77l.18.23a2.33,2.33,0,0,1,.44.59c.06.14,0,.25-.14.34a1.2,1.2,0,0,1-1.24-.1,2.74,2.74,0,0,1-.7-.57,2.54,2.54,0,0,1-.23-.34.18.18,0,0,0-.09-.08.48.48,0,0,0-.49,0l-.57.32c-.08,0-.1.12-.06.18a3.43,3.43,0,0,0,.95.87l-.46.27c-.1.06-.1.15,0,.21l.5.29a.43.43,0,0,0,.35,0l.49-.29a3.58,3.58,0,0,0,1.55.27,3.13,3.13,0,0,0,1.4-.39,1.11,1.11,0,0,0,.53-.52.64.64,0,0,0,0-.54,2.83,2.83,0,0,0-.47-.61l-.4-.41a.57.57,0,0,1-.11-.28.34.34,0,0,1,.2-.26.9.9,0,0,1,.58-.1,1.58,1.58,0,0,1,.66.23,1.67,1.67,0,0,1,.58.51l.15.26a.28.28,0,0,0,.09.1.6.6,0,0,0,.49,0l.58-.33c.08-.05.1-.12.06-.18a2.1,2.1,0,0,0-.26-.33,2.33,2.33,0,0,0-.45-.38l.38-.22a.12.12,0,0,0,0-.21"/><path class="cls-1" d="M33.38,28.22a4.49,4.49,0,0,0-1.75-1.68,9,9,0,0,0-3.26-1.06l-.4-.23H25.45l-.39.22a9.15,9.15,0,0,0-3.34,1.07A4.35,4.35,0,0,0,20,28.23l-.29.16V30a3.55,3.55,0,0,0,2.06,2.83,10.87,10.87,0,0,0,9.87,0,3.48,3.48,0,0,0,2-2.82V28.39Z"/><path class="cls-2" d="M31.63,25.49a10.87,10.87,0,0,0-9.87,0c-2.72,1.58-2.71,4.14,0,5.72a10.87,10.87,0,0,0,9.87,0c2.72-1.58,2.7-4.14,0-5.72"/><path class="cls-4" d="M26.72,24.78A9.51,9.51,0,0,0,22,25.92a3,3,0,0,0-1.79,2.44A3,3,0,0,0,22,30.82a9.56,9.56,0,0,0,4.69,1.1h0a9.58,9.58,0,0,0,4.69-1.12,3,3,0,0,0,1.8-2.44,3,3,0,0,0-1.82-2.44A9.61,9.61,0,0,0,26.72,24.78Z"/><path class="cls-1" d="M27,25.09a9.37,9.37,0,0,0-4.69,1.12,3,3,0,0,0-1.8,2.44,3.07,3.07,0,0,0,1.83,2.46A9.62,9.62,0,0,0,27,32.23h0a9.6,9.6,0,0,0,4.73-1.12,3,3,0,0,0,1.79-2.44,3,3,0,0,0-1.83-2.46A9.38,9.38,0,0,0,27,25.09Z"/><path class="cls-1" d="M33.17,26.14a4.49,4.49,0,0,0-1.75-1.68,9,9,0,0,0-3.26-1.06l-.4-.23H25.24l-.39.22a9,9,0,0,0-3.3,1.07,4.35,4.35,0,0,0-1.74,1.69l-.29.16v1.61a3.55,3.55,0,0,0,2.06,2.83,10.87,10.87,0,0,0,9.87,0,3.48,3.48,0,0,0,2-2.82V26.31Z"/><path class="cls-1" d="M33,25.7A4.49,4.49,0,0,0,31.22,24,9.19,9.19,0,0,0,28,22.92l-.4-.23H25l-.39.22A9,9,0,0,0,21.35,24a4.35,4.35,0,0,0-1.74,1.69l-.29.25v1.6a3.53,3.53,0,0,0,2.06,2.83,10.87,10.87,0,0,0,9.87,0,3.48,3.48,0,0,0,2-2.82V25.92Z"/><path class="cls-2" d="M31.22,23a10.87,10.87,0,0,0-9.87,0c-2.72,1.58-2.71,4.14,0,5.72a10.87,10.87,0,0,0,9.87,0c2.72-1.58,2.7-4.14,0-5.72"/><path class="cls-3" d="M26.27,22.26a9.47,9.47,0,0,0-4.69,1.12,3,3,0,0,0-1.79,2.44,3.07,3.07,0,0,0,1.82,2.46,9.66,9.66,0,0,0,4.71,1.12h0A9.58,9.58,0,0,0,31,28.28a3,3,0,0,0,1.8-2.44A3.05,3.05,0,0,0,31,23.38,9.55,9.55,0,0,0,26.27,22.26Z"/><path class="cls-2" d="M26.54,22.57a9.37,9.37,0,0,0-4.69,1.12,3,3,0,0,0-1.8,2.44,3.07,3.07,0,0,0,1.83,2.46,9.62,9.62,0,0,0,4.7,1.12h0a9.47,9.47,0,0,0,4.69-1.12,3,3,0,0,0,1.8-2.44,3,3,0,0,0-1.83-2.46A9.48,9.48,0,0,0,26.54,22.57Z"/><path class="cls-4" d="M30,23.92l-.5-.29a.36.36,0,0,0-.35,0l-.4.23a3.6,3.6,0,0,0-1.62-.3,3,3,0,0,0-1.38.36c-.41.24-.61.48-.6.71a1.17,1.17,0,0,0,.37.78l.18.22a2.9,2.9,0,0,1,.44.6c.06.13,0,.25-.14.34a1.2,1.2,0,0,1-1.24-.1,2.61,2.61,0,0,1-.7-.58,1.94,1.94,0,0,1-.23-.33.2.2,0,0,0-.09-.09.53.53,0,0,0-.49,0l-.57.33c-.08,0-.1.12-.06.18a3.43,3.43,0,0,0,.95.87l-.46.27a.09.09,0,0,0-.1.1.1.1,0,0,0,.1.1l.5.29a.36.36,0,0,0,.35,0l.49-.28A3.73,3.73,0,0,0,26,27.6a3.14,3.14,0,0,0,1.4-.4,1.14,1.14,0,0,0,.53-.51.64.64,0,0,0,0-.54,2.6,2.6,0,0,0-.47-.62c-.18-.19-.31-.34-.38-.43a.52.52,0,0,1-.11-.29.34.34,0,0,1,.2-.25.91.91,0,0,1,.58-.14,1.73,1.73,0,0,1,.66.23,1.81,1.81,0,0,1,.58.52l.15.26a.2.2,0,0,0,.09.09.53.53,0,0,0,.49,0l.58-.33a.11.11,0,0,0,.07-.15,0,0,0,0,0,0,0,2.1,2.1,0,0,0-.26-.33,3.23,3.23,0,0,0-.45-.38l.38-.22a.11.11,0,0,0,.05-.15L30,23.88"/><path class="cls-1" d="M33.38,23.4a4.35,4.35,0,0,0-1.75-1.68,9,9,0,0,0-3.26-1.07l-.4-.22H25.45l-.39.21a9.17,9.17,0,0,0-3.34,1.08A4.35,4.35,0,0,0,20,23.41l-.29.16v1.6A3.52,3.52,0,0,0,21.75,28a10.87,10.87,0,0,0,9.87,0,3.48,3.48,0,0,0,2-2.81V23.57Z"/><path class="cls-2" d="M31.63,20.67a10.87,10.87,0,0,0-9.87,0c-2.72,1.58-2.71,4.14,0,5.72a10.93,10.93,0,0,0,9.87,0c2.72-1.58,2.7-4.14,0-5.72"/><path class="cls-4" d="M26.72,19.92A9.38,9.38,0,0,0,22,21a3,3,0,0,0-1.79,2.44,3.07,3.07,0,0,0,1.83,2.46,9.7,9.7,0,0,0,4.66,1.16h0A9.58,9.58,0,0,0,31.41,26a3,3,0,0,0,1.8-2.44,3,3,0,0,0-1.83-2.46A9.48,9.48,0,0,0,26.72,19.92Z"/><path class="cls-1" d="M27,20.26a9.47,9.47,0,0,0-4.69,1.12,3,3,0,0,0-1.8,2.44,3,3,0,0,0,1.83,2.46A9.48,9.48,0,0,0,27,27.4h0a9.49,9.49,0,0,0,4.73-1.12,3,3,0,0,0,1.79-2.44,3.05,3.05,0,0,0-1.83-2.46A9.49,9.49,0,0,0,27,20.26Z"/><path class="cls-4" d="M30.39,21.57l-.51-.29a.43.43,0,0,0-.35,0l-.4.24a3.6,3.6,0,0,0-1.62-.3,3,3,0,0,0-1.36.37c-.4.24-.61.47-.6.71a1.17,1.17,0,0,0,.37.78l.19.22a3.07,3.07,0,0,1,.43.59c.06.14,0,.25-.14.34a1.14,1.14,0,0,1-1.23-.1,2.62,2.62,0,0,1-.71-.57,1.85,1.85,0,0,1-.23-.34.18.18,0,0,0-.09-.08.53.53,0,0,0-.49,0l-.56.33c-.08,0-.11.11-.07.17a3.43,3.43,0,0,0,.95.87l-.46.27c-.1.06-.1.15,0,.21l.5.29a.38.38,0,0,0,.36,0l.48-.28a3.62,3.62,0,0,0,1.56.26,3.07,3.07,0,0,0,1.39-.34,1.11,1.11,0,0,0,.53-.52.62.62,0,0,0,0-.53,2.36,2.36,0,0,0-.47-.62l-.38-.44a.42.42,0,0,1-.1-.28.29.29,0,0,1,.19-.25.91.91,0,0,1,.58-.11,1.73,1.73,0,0,1,.66.23,1.67,1.67,0,0,1,.58.51c.05.09.11.18.15.27a.2.2,0,0,0,.09.09.62.62,0,0,0,.5,0l.57-.33c.08,0,.1-.12.06-.18a2.1,2.1,0,0,0-.26-.33,3.23,3.23,0,0,0-.45-.38l.38-.22a.12.12,0,0,0,.05-.16.12.12,0,0,0-.05-.05"/><path class="cls-1" d="M33.17,21.32a4.35,4.35,0,0,0-1.75-1.68,9,9,0,0,0-3.26-1.07l-.4-.22H25.24l-.39.21a9,9,0,0,0-3.3,1.08,4.35,4.35,0,0,0-1.74,1.69l-.29.16v1.6a3.53,3.53,0,0,0,2.06,2.83,10.87,10.87,0,0,0,9.87,0,3.48,3.48,0,0,0,2-2.81V21.49Z"/><path class="cls-2" d="M31.42,18.59a10.87,10.87,0,0,0-9.87,0c-2.72,1.58-2.71,4.14,0,5.72a10.93,10.93,0,0,0,9.87,0c2.72-1.58,2.7-4.14,0-5.72"/><path class="cls-3" d="M26.48,17.92A9.38,9.38,0,0,0,21.78,19,3,3,0,0,0,20,21.48a3.06,3.06,0,0,0,1.83,2.44A9.62,9.62,0,0,0,26.52,25h0a9.58,9.58,0,0,0,4.69-1.12A3,3,0,0,0,33,21.48,3,3,0,0,0,31.18,19,9.38,9.38,0,0,0,26.48,17.92Z"/><path class="cls-2" d="M26.72,18.18A9.47,9.47,0,0,0,22,19.3a3,3,0,0,0-1.8,2.44,3,3,0,0,0,1.83,2.46,9.48,9.48,0,0,0,4.7,1.12h0a9.48,9.48,0,0,0,4.7-1.12,3,3,0,0,0,1.79-2.44,3.05,3.05,0,0,0-1.83-2.46A9.51,9.51,0,0,0,26.72,18.18Z"/><path class="cls-4" d="M30.18,19.49l-.46-.29a.43.43,0,0,0-.35,0l-.4.24a3.6,3.6,0,0,0-1.62-.3,3,3,0,0,0-1.36.37c-.4.24-.61.47-.6.71a1.17,1.17,0,0,0,.37.78l.19.22a3.07,3.07,0,0,1,.43.59c.06.14,0,.25-.14.34a1.14,1.14,0,0,1-1.23-.1,2.62,2.62,0,0,1-.71-.57,1.85,1.85,0,0,1-.23-.34.18.18,0,0,0-.09-.08.53.53,0,0,0-.49,0l-.56.33a.12.12,0,0,0-.08.15,0,0,0,0,0,0,0,3.39,3.39,0,0,0,.95.86l-.46.27c-.1.06-.1.15,0,.21l.5.29a.38.38,0,0,0,.36,0l.48-.28a3.62,3.62,0,0,0,1.56.26,3.05,3.05,0,0,0,1.39-.39,1.11,1.11,0,0,0,.53-.52.62.62,0,0,0,0-.53,2.56,2.56,0,0,0-.46-.62c-.19-.2-.31-.34-.39-.44a.42.42,0,0,1-.1-.28.29.29,0,0,1,.19-.25A.91.91,0,0,1,28,20a1.73,1.73,0,0,1,.66.23,1.61,1.61,0,0,1,.58.52,1.35,1.35,0,0,1,.15.26.2.2,0,0,0,.09.09.62.62,0,0,0,.5,0l.57-.33c.08,0,.1-.12.06-.18a2.1,2.1,0,0,0-.26-.33,3.23,3.23,0,0,0-.45-.38l.38-.22a.12.12,0,0,0,.05-.16l-.05-.05"/><path class="cls-1" d="M33.17,18.5a4.39,4.39,0,0,0-1.74-1.68,9.17,9.17,0,0,0-3.25-1.08l-.41-.22H25.25l-.39.22a8.76,8.76,0,0,0-3.3,1.06,4.2,4.2,0,0,0-1.74,1.68l-.3.16v1.6a3.5,3.5,0,0,0,2.05,2.83,10.87,10.87,0,0,0,9.87,0,3.55,3.55,0,0,0,2-2.82V18.67Z"/><path class="cls-2" d="M31.42,15.75a10.87,10.87,0,0,0-9.87,0c-2.72,1.58-2.71,4.14,0,5.72a10.87,10.87,0,0,0,9.87,0c2.72-1.58,2.7-4.14,0-5.72"/><path class="cls-4" d="M26.48,15a9.48,9.48,0,0,0-4.7,1.12A3,3,0,0,0,20,18.6a3,3,0,0,0,1.83,2.46,9.48,9.48,0,0,0,4.7,1.12h0a9.47,9.47,0,0,0,4.69-1.12A3,3,0,0,0,33,18.62a3.05,3.05,0,0,0-1.83-2.46A9.51,9.51,0,0,0,26.48,15Z"/><path class="cls-2" d="M26.72,15.35A9.47,9.47,0,0,0,22,16.47a3,3,0,0,0-1.78,2.45,3,3,0,0,0,1.83,2.46,9.62,9.62,0,0,0,4.7,1.12h0a9.59,9.59,0,0,0,4.7-1.12,3,3,0,0,0,1.79-2.46,3,3,0,0,0-1.83-2.46A9.58,9.58,0,0,0,26.72,15.35Z"/><path class="cls-4" d="M30.18,16.66l-.46-.29a.36.36,0,0,0-.35,0l-.4.23a3.89,3.89,0,0,0-1.62-.3,3.08,3.08,0,0,0-1.36.38c-.4.23-.61.47-.6.71a1.15,1.15,0,0,0,.37.77,2.11,2.11,0,0,0,.19.23,2.56,2.56,0,0,1,.43.59c.06.14,0,.25-.14.34a1.16,1.16,0,0,1-1.23-.1,2.62,2.62,0,0,1-.71-.57,2.54,2.54,0,0,1-.23-.34.26.26,0,0,0-.09-.09.53.53,0,0,0-.49,0l-.56.33c-.08.05-.11.12-.07.18a3.43,3.43,0,0,0,.95.87l-.46.27c-.1.06-.1.15,0,.21l.5.29a.45.45,0,0,0,.36,0l.48-.29a3.48,3.48,0,0,0,1.56.27,3.2,3.2,0,0,0,1.34-.43,1.11,1.11,0,0,0,.53-.52.64.64,0,0,0,0-.54,2.56,2.56,0,0,0-.46-.62c-.19-.19-.31-.34-.39-.43a.42.42,0,0,1-.1-.28c0-.1.06-.18.19-.26a.9.9,0,0,1,.58-.1,1.58,1.58,0,0,1,.66.23,1.67,1.67,0,0,1,.58.51c0,.09.11.17.15.26a.2.2,0,0,0,.09.09.55.55,0,0,0,.5,0l.57-.34a.12.12,0,0,0,.08-.14l0,0a2.1,2.1,0,0,0-.26-.33,2.33,2.33,0,0,0-.45-.38l.38-.22a.12.12,0,0,0,.05-.16.12.12,0,0,0-.05-.05"/><path class="cls-1" d="M32.57,16.28a4.29,4.29,0,0,0-1.75-1.68,8.94,8.94,0,0,0-3.25-1.06l-.41-.23H24.65l-.4.22A9,9,0,0,0,21,14.6a4.2,4.2,0,0,0-1.73,1.69l-.29.16v1.6A3.52,3.52,0,0,0,21,20.92a11,11,0,0,0,9.88,0,3.48,3.48,0,0,0,2-2.82V16.45Z"/><path class="cls-2" d="M30.82,13.55a10.87,10.87,0,0,0-9.87,0c-2.71,1.58-2.7,4.14,0,5.72a10.89,10.89,0,0,0,9.88,0c2.71-1.58,2.7-4.14,0-5.72"/><path class="cls-5" d="M25.88,12.84a9.44,9.44,0,0,0-4.69,1.08,3,3,0,0,0-1.79,2.44,3.07,3.07,0,0,0,1.82,2.46,9.66,9.66,0,0,0,4.71,1.12h0a9.58,9.58,0,0,0,4.69-1.12,3,3,0,0,0,1.79-2.44,3,3,0,0,0-1.82-2.46A9.51,9.51,0,0,0,25.88,12.84Z"/><path class="cls-2" d="M26.14,13.14a9.37,9.37,0,0,0-4.69,1.13,3,3,0,0,0-1.79,2.44,3.09,3.09,0,0,0,1.82,2.46,9.66,9.66,0,0,0,4.71,1.12h0a9.58,9.58,0,0,0,4.69-1.12,3,3,0,0,0,1.84-2.44,3,3,0,0,0-1.82-2.46A9.4,9.4,0,0,0,26.14,13.14Z"/><path class="cls-4" d="M29.58,14.46l-.5-.29a.38.38,0,0,0-.36,0l-.4.23a3.58,3.58,0,0,0-1.61-.3,3,3,0,0,0-1.37.37c-.4.24-.6.48-.6.71a1.3,1.3,0,0,0,.37.78l.19.22a2.9,2.9,0,0,1,.44.6c.06.13,0,.25-.14.34a1.2,1.2,0,0,1-1.24-.1,2.61,2.61,0,0,1-.7-.58,1.5,1.5,0,0,1-.23-.33.2.2,0,0,0-.09-.09.55.55,0,0,0-.5,0l-.56.33c-.08,0-.11.12-.07.18a3.31,3.31,0,0,0,1,.86l-.47.28a.09.09,0,0,0-.1.1.1.1,0,0,0,.1.1h0l.5.29a.38.38,0,0,0,.36,0l.49-.28a3.73,3.73,0,0,0,1.55.27,3.14,3.14,0,0,0,1.4-.4,1.11,1.11,0,0,0,.53-.52.7.7,0,0,0,0-.53,2.6,2.6,0,0,0-.47-.62c-.18-.2-.31-.34-.38-.44a.43.43,0,0,1-.11-.28c0-.09.07-.18.2-.25a.91.91,0,0,1,.58-.11,1.73,1.73,0,0,1,.66.23,1.78,1.78,0,0,1,.57.52,1.35,1.35,0,0,1,.15.26.22.22,0,0,0,.1.09.53.53,0,0,0,.49,0l.57-.33c.08,0,.11-.12.07-.18a2.91,2.91,0,0,0-.26-.33,3.32,3.32,0,0,0-.46-.38l.38-.22a.1.1,0,0,0,.1-.1.09.09,0,0,0-.1-.1"/><path class="cls-1" d="M33.25,15.44v.08A.11.11,0,0,0,33.25,15.44Z"/><path class="cls-1" d="M33,14.3a4.35,4.35,0,0,0-1.75-1.68,9.2,9.2,0,0,0-3.26-1.07l-.4-.22H25l-.39.21a9,9,0,0,0-3.31,1.08,4.2,4.2,0,0,0-1.73,1.69l-.29.15v1.6a3.5,3.5,0,0,0,2.06,2.86,10.87,10.87,0,0,0,9.87,0,3.48,3.48,0,0,0,2-2.82V14.46Z"/><path class="cls-2" d="M31.2,11.57a10.89,10.89,0,0,0-9.88,0c-2.71,1.58-2.7,4.14,0,5.71a10.87,10.87,0,0,0,9.87,0c2.72-1.57,2.7-4.13,0-5.71"/><path class="cls-4" d="M26.25,10.85A9.37,9.37,0,0,0,21.56,12a3,3,0,0,0-1.79,2.44,3.08,3.08,0,0,0,1.82,2.5A9.66,9.66,0,0,0,26.3,18h0A9.58,9.58,0,0,0,31,16.92a3,3,0,0,0,1.79-2.44A3,3,0,0,0,31,12,9.46,9.46,0,0,0,26.25,10.85Z"/><path class="cls-2" d="M26.52,11.16a9.48,9.48,0,0,0-4.7,1.12A3,3,0,0,0,20,14.72a3,3,0,0,0,1.83,2.46,9.62,9.62,0,0,0,4.7,1.12h0a9.58,9.58,0,0,0,4.69-1.12,3,3,0,0,0,1.8-2.44,3,3,0,0,0-1.83-2.46A9.51,9.51,0,0,0,26.52,11.16Z"/><path class="cls-4" d="M30,12.47l-.5-.29a.43.43,0,0,0-.35,0l-.4.23a3.91,3.91,0,0,0-1.62-.29,2.83,2.83,0,0,0-1.36.37c-.41.23-.61.47-.6.71a1.23,1.23,0,0,0,.36.78l.19.22a2.59,2.59,0,0,1,.44.59c.06.14,0,.25-.14.34a1.2,1.2,0,0,1-1.24-.1,2.74,2.74,0,0,1-.7-.57,1.85,1.85,0,0,1-.23-.34.18.18,0,0,0-.09-.08.48.48,0,0,0-.49,0l-.57.33c-.08,0-.11.11-.06.17a3.43,3.43,0,0,0,.95.87l-.47.27a.12.12,0,0,0,0,.21l.5.29a.43.43,0,0,0,.35,0l.5-.26a3.58,3.58,0,0,0,1.55.27,3.13,3.13,0,0,0,1.4-.39,1.11,1.11,0,0,0,.53-.52.62.62,0,0,0,0-.53,2.6,2.6,0,0,0-.47-.62c-.18-.2-.31-.34-.38-.44a.43.43,0,0,1-.11-.28.34.34,0,0,1,.2-.26.9.9,0,0,1,.58-.1,1.73,1.73,0,0,1,.66.23,1.55,1.55,0,0,1,.57.51c.06.09.11.18.16.27s0,.06.09.09a.6.6,0,0,0,.49,0l.57-.33c.08,0,.11-.12.07-.18a2.91,2.91,0,0,0-.26-.33,3.23,3.23,0,0,0-.45-.38l.37-.22c.1-.06.1-.15,0-.21"/><path class="cls-1" d="M32.72,12.22A4.35,4.35,0,0,0,31,10.54a9.15,9.15,0,0,0-3.25-1.07l-.4-.22H24.81l-.39.21a9,9,0,0,0-3.31,1.08,4.2,4.2,0,0,0-1.73,1.69l-.29.15V14a3.52,3.52,0,0,0,2.06,2.82,10.87,10.87,0,0,0,9.87,0A3.48,3.48,0,0,0,33,14V12.38Z"/><path class="cls-2" d="M31,9.49a10.89,10.89,0,0,0-9.88,0c-2.71,1.58-2.7,4.14,0,5.71a10.87,10.87,0,0,0,9.87,0c2.72-1.57,2.7-4.13,0-5.71"/><path class="cls-4" d="M26,8.77a9.37,9.37,0,0,0-4.69,1.15,3,3,0,0,0-1.79,2.44,3.09,3.09,0,0,0,1.82,2.46,9.64,9.64,0,0,0,4.71,1.1h0a9.58,9.58,0,0,0,4.69-1.12,3,3,0,0,0,1.79-2.44,3,3,0,0,0-1.85-2.44A9.46,9.46,0,0,0,26,8.77Z"/><path class="cls-2" d="M26.25,9.08a9.54,9.54,0,0,0-4.67,1.19,3,3,0,0,0-1.76,2.47,3.08,3.08,0,0,0,1.9,2.43,9.55,9.55,0,0,0,4.72,1h0A9.55,9.55,0,0,0,31.12,15a3,3,0,0,0,1.76-2.46A3.1,3.1,0,0,0,31,10.13,9.74,9.74,0,0,0,26.25,9.08Z"/><path class="cls-4" d="M29.72,10.39l-.5-.29a.43.43,0,0,0-.35,0l-.4.23A3.91,3.91,0,0,0,26.85,10a2.83,2.83,0,0,0-1.36.37c-.41.23-.61.47-.6.71a1.23,1.23,0,0,0,.36.78l.19.22a2.59,2.59,0,0,1,.44.59c.06.14,0,.25-.14.34a1.17,1.17,0,0,1-1.22-.13,2.74,2.74,0,0,1-.7-.57,1.85,1.85,0,0,1-.23-.34.18.18,0,0,0-.09-.08.48.48,0,0,0-.49,0l-.57.33c-.08,0-.11.11-.06.17a3.43,3.43,0,0,0,.95.87l-.47.27a.12.12,0,0,0,0,.21l.5.29a.43.43,0,0,0,.35,0l.49-.29a3.58,3.58,0,0,0,1.55.27,3.13,3.13,0,0,0,1.4-.39,1.11,1.11,0,0,0,.53-.52.62.62,0,0,0,0-.53,2.6,2.6,0,0,0-.47-.62c-.18-.2-.31-.34-.38-.44a.49.49,0,0,1-.11-.28.34.34,0,0,1,.2-.26.9.9,0,0,1,.58-.1,1.73,1.73,0,0,1,.66.23,1.55,1.55,0,0,1,.57.51c.06.09.11.18.16.27s.05.06.09.09a.6.6,0,0,0,.49,0l.57-.33c.08,0,.11-.12.07-.18a2.91,2.91,0,0,0-.26-.33,3.23,3.23,0,0,0-.45-.38l.37-.22c.1-.06.1-.15,0-.21"/><path class="cls-1" d="M32.41,10.14a4.29,4.29,0,0,0-1.75-1.68,9.15,9.15,0,0,0-3.25-1.07L27,7.17H24.48l-.39.21a9,9,0,0,0-3.3,1.08,4.29,4.29,0,0,0-1.74,1.69l-.29.15v1.62a3.52,3.52,0,0,0,2.06,2.82,10.87,10.87,0,0,0,9.87,0,3.48,3.48,0,0,0,2-2.82V10.3Z"/><path class="cls-1" d="M30.66,7.41a10.87,10.87,0,0,0-9.87,0c-2.72,1.58-2.7,4.14,0,5.71a10.87,10.87,0,0,0,9.87,0c2.72-1.57,2.71-4.13,0-5.71"/><path class="cls-1" d="M25.72,6.69A9.37,9.37,0,0,0,21,7.82a3,3,0,0,0-1.8,2.44,3.1,3.1,0,0,0,1.83,2.46,9.58,9.58,0,0,0,4.66,1.12h0a9.58,9.58,0,0,0,4.69-1.12,3,3,0,0,0,1.79-2.44,3,3,0,0,0-1.77-2.46A9.45,9.45,0,0,0,25.72,6.69Z"/><path class="cls-1" d="M26,7a9.47,9.47,0,0,0-4.69,1.12,3,3,0,0,0-1.79,2.44A3.07,3.07,0,0,0,21.32,13,9.66,9.66,0,0,0,26,14.14h0A9.58,9.58,0,0,0,30.72,13a3,3,0,0,0,1.79-2.44,3.06,3.06,0,0,0-1.79-2.46A9.55,9.55,0,0,0,26,7Z"/><path class="cls-1" d="M29.42,8.31,28.92,8a.45.45,0,0,0-.36,0l-.4.24a3.63,3.63,0,0,0-1.62-.34,2.83,2.83,0,0,0-1.36.37c-.4.23-.6.47-.6.71a1.3,1.3,0,0,0,.37.78l.19.22a2.29,2.29,0,0,1,.43.59c.07.14,0,.25-.13.34a1.16,1.16,0,0,1-1.24-.1,2.74,2.74,0,0,1-.7-.57,1.27,1.27,0,0,1-.23-.34.18.18,0,0,0-.09-.08.5.5,0,0,0-.5,0l-.56.33c-.08,0-.11.11-.07.17a3.34,3.34,0,0,0,1,.87l-.47.27c-.1.06-.1.15,0,.21l.5.29a.45.45,0,0,0,.36,0l.49-.29a3.44,3.44,0,0,0,1.55.27,3.13,3.13,0,0,0,1.4-.39,1.11,1.11,0,0,0,.53-.52.7.7,0,0,0,0-.53,2.6,2.6,0,0,0-.47-.62c-.18-.2-.31-.34-.38-.44a.43.43,0,0,1-.11-.28c0-.1.07-.18.2-.26a.86.86,0,0,1,.57-.1,1.87,1.87,0,0,1,1.24.74,1.17,1.17,0,0,1,.15.27l.09.09a.62.62,0,0,0,.5,0l.52-.29c.08-.05.11-.12.07-.18a2.91,2.91,0,0,0-.26-.33,2.82,2.82,0,0,0-.46-.38l.38-.22c.1-.06.1-.15,0-.21"/><path class="cls-1" d="M33.31,8.15a4.35,4.35,0,0,0-1.75-1.68A9,9,0,0,0,28.3,5.4l-.4-.22H25.38L25,5.39a9,9,0,0,0-3.27,1.08A4.35,4.35,0,0,0,20,8.16l-.29.16v1.6a3.55,3.55,0,0,0,2,2.82,10.87,10.87,0,0,0,9.87,0,3.48,3.48,0,0,0,2-2.81V8.32Z"/><path class="cls-2" d="M31.56,5.42a10.87,10.87,0,0,0-9.84,0C19,7,19,9.56,21.72,11.14a10.93,10.93,0,0,0,9.87,0c2.72-1.58,2.7-4.14,0-5.72"/><path class="cls-4" d="M26.62,4.71a9.38,9.38,0,0,0-4.7,1.12,3,3,0,0,0-1.79,2.44A3,3,0,0,0,22,10.73a9.62,9.62,0,0,0,4.7,1.12h0a9.58,9.58,0,0,0,4.69-1.12,3,3,0,0,0,1.8-2.44,3,3,0,0,0-1.83-2.46A9.48,9.48,0,0,0,26.62,4.71Z"/><path class="cls-2" d="M26.88,5a9.47,9.47,0,0,0-4.69,1.12,3,3,0,0,0-1.8,2.44A3,3,0,0,0,22.22,11a9.48,9.48,0,0,0,4.7,1.12h0A9.48,9.48,0,0,0,31.62,11a3,3,0,0,0,1.79-2.44,3.05,3.05,0,0,0-1.83-2.46A9.51,9.51,0,0,0,26.88,5Z"/><path class="cls-4" d="M30.32,6.32,29.81,6a.43.43,0,0,0-.35,0l-.4.24A3.6,3.6,0,0,0,27.44,6a3,3,0,0,0-1.36.37c-.4.24-.61.47-.6.71a1.17,1.17,0,0,0,.37.78l.19.22a3.07,3.07,0,0,1,.43.59c.06.14,0,.25-.14.34a1.14,1.14,0,0,1-1.23-.06,2.62,2.62,0,0,1-.71-.57A1.85,1.85,0,0,1,24.16,8a.2.2,0,0,0-.09-.09.53.53,0,0,0-.49,0L23,8.25a.12.12,0,0,0-.08.15,0,0,0,0,0,0,0,3.39,3.39,0,0,0,.95.86l-.46.27c-.1.06-.1.15,0,.21l.5.29a.38.38,0,0,0,.36,0l.48-.28a3.62,3.62,0,0,0,1.56.26,3,3,0,0,0,1.38-.42,1.11,1.11,0,0,0,.53-.52.62.62,0,0,0,0-.53,2.75,2.75,0,0,0-.53-.65c-.19-.2-.31-.34-.39-.44a.42.42,0,0,1-.1-.28A.29.29,0,0,1,27.42,7a.94.94,0,0,1,.62,0,1.73,1.73,0,0,1,.66.23,1.61,1.61,0,0,1,.58.52,1.35,1.35,0,0,1,.15.26.2.2,0,0,0,.09.09A.62.62,0,0,0,30,8l.57-.33c.08,0,.1-.12.06-.18a2.1,2.1,0,0,0-.26-.33,3.23,3.23,0,0,0-.45-.38l.38-.22a.12.12,0,0,0,.05-.16l-.05,0"/><path class="cls-1" d="M32.57,6.07a4.29,4.29,0,0,0-1.75-1.68,8.94,8.94,0,0,0-3.25-1.06l-.41-.22H24.65l-.4.21A9.14,9.14,0,0,0,21,4.39a4.2,4.2,0,0,0-1.73,1.69l-.29.16v1.6A3.5,3.5,0,0,0,21,10.67a10.89,10.89,0,0,0,9.88,0,3.48,3.48,0,0,0,2-2.82V6.24Z"/><path class="cls-2" d="M30.82,3.34a10.87,10.87,0,0,0-9.87,0c-2.71,1.58-2.7,4.14,0,5.72a10.89,10.89,0,0,0,9.88,0c2.71-1.58,2.7-4.14,0-5.72"/><path class="cls-4" d="M25.88,2.63a9.47,9.47,0,0,0-4.69,1.12A3,3,0,0,0,19.4,6.19a3.07,3.07,0,0,0,1.82,2.46,9.66,9.66,0,0,0,4.71,1.12h0a9.58,9.58,0,0,0,4.69-1.12,3,3,0,0,0,1.79-2.44,3,3,0,0,0-1.82-2.46A9.55,9.55,0,0,0,25.88,2.63Z"/><path class="cls-2" d="M26.14,2.92A9.47,9.47,0,0,0,21.45,4a3,3,0,0,0-1.79,2.44,3,3,0,0,0,1.82,2.44A9.66,9.66,0,0,0,26.19,10h0a9.58,9.58,0,0,0,4.69-1.12,3,3,0,0,0,1.84-2.4A3,3,0,0,0,30.9,4.06,9.51,9.51,0,0,0,26.14,2.92Z"/><path class="cls-4" d="M29.58,4.25l-.5-.33a.38.38,0,0,0-.36,0l-.4.23a3.8,3.8,0,0,0-1.6-.23,2.88,2.88,0,0,0-1.37.38c-.4.23-.6.47-.6.71a1.27,1.27,0,0,0,.37.77l.19.22a2.9,2.9,0,0,1,.44.6c.06.14,0,.25-.14.34a1.2,1.2,0,0,1-1.24-.1,2.74,2.74,0,0,1-.7-.57,2.71,2.71,0,0,1-.24-.35.26.26,0,0,0-.09-.09.55.55,0,0,0-.5,0l-.56.33c-.08,0-.11.12-.07.18a3.34,3.34,0,0,0,1,.87l-.49.25c-.1.06-.1.15,0,.21l.5.28a.38.38,0,0,0,.36,0l.49-.28a3.48,3.48,0,0,0,1.53.25,3.14,3.14,0,0,0,1.4-.4A1.09,1.09,0,0,0,27.53,7a.72.72,0,0,0,0-.54A3,3,0,0,0,27,5.92c-.18-.19-.31-.34-.38-.43a.46.46,0,0,1-.11-.29c0-.09.07-.17.2-.25a.84.84,0,0,1,.58-.1,1.58,1.58,0,0,1,.66.23,1.64,1.64,0,0,1,.57.51,1.35,1.35,0,0,1,.15.26.22.22,0,0,0,.1.09.53.53,0,0,0,.49,0l.57-.34c.08,0,.11-.11.07-.17a2.91,2.91,0,0,0-.26-.33,2.44,2.44,0,0,0-.46-.39l.38-.21c.1-.06.1-.15,0-.21"/><path class="cls-1" d="M32.36,4a4.29,4.29,0,0,0-1.75-1.68,8.94,8.94,0,0,0-3.25-1.06L27,1H24.44l-.4.21a9.11,9.11,0,0,0-3.32,1.07A4.2,4.2,0,0,0,19,4l-.27.16v1.6a3.5,3.5,0,0,0,2.05,2.83,10.89,10.89,0,0,0,9.88,0,3.48,3.48,0,0,0,2-2.82V4.16Z"/><path class="cls-2" d="M30.61,1.26a10.87,10.87,0,0,0-9.87,0C18,2.84,18,5.4,20.74,7a10.89,10.89,0,0,0,9.88,0c2.71-1.58,2.7-4.14,0-5.72"/><path class="cls-3" d="M25.72.55A9.47,9.47,0,0,0,21,1.67a3,3,0,0,0-1.79,2.44,3.07,3.07,0,0,0,1.82,2.46,9.58,9.58,0,0,0,4.66,1.12h0a9.58,9.58,0,0,0,4.69-1.12A3,3,0,0,0,32.2,4.13a3,3,0,0,0-1.82-2.46A9.58,9.58,0,0,0,25.72.55Z"/><path class="cls-2" d="M25.93.86A9.47,9.47,0,0,0,21.24,2a3,3,0,0,0-1.79,2.44,3.07,3.07,0,0,0,1.82,2.5A9.66,9.66,0,0,0,26,8h0a9.55,9.55,0,0,0,4.74-1.12,3,3,0,0,0,1.79-2.44A3,3,0,0,0,30.69,2,9.64,9.64,0,0,0,25.93.86Z"/><path class="cls-1" d="M29.36,2.43l-.5-.29a.36.36,0,0,0-.35,0l-.4.23a3.61,3.61,0,0,0-1.62-.29,2.83,2.83,0,0,0-1.36.37c-.41.23-.61.47-.6.71a1.15,1.15,0,0,0,.37.77,1.3,1.3,0,0,0,.18.23,2.33,2.33,0,0,1,.44.59c.06.14,0,.25-.14.34A1.2,1.2,0,0,1,24.14,5a2.74,2.74,0,0,1-.7-.57,1.85,1.85,0,0,1-.23-.34A.18.18,0,0,0,23.12,4a.48.48,0,0,0-.49,0l-.57.32c-.08,0-.1.12-.06.18a3.43,3.43,0,0,0,.95.87l-.46.27c-.1.06-.1.15,0,.21l.5.29a.43.43,0,0,0,.35,0l.49-.29a3.58,3.58,0,0,0,1.55.27,3.13,3.13,0,0,0,1.4-.39,1.11,1.11,0,0,0,.53-.52.64.64,0,0,0,0-.54,2.83,2.83,0,0,0-.47-.61l-.42-.44a.43.43,0,0,1-.11-.28.34.34,0,0,1,.2-.26.9.9,0,0,1,.58-.1,1.58,1.58,0,0,1,.66.23,1.55,1.55,0,0,1,.57.51l.16.26a.28.28,0,0,0,.09.1.6.6,0,0,0,.49,0l.57-.33c.09,0,.11-.12.07-.18a2.1,2.1,0,0,0-.26-.33A2.33,2.33,0,0,0,29,2.86l.38-.22a.12.12,0,0,0,0-.21"/><path class="cls-2" d="M19,33.24a10.87,10.87,0,0,0-9.87,0c-2.72,1.58-2.71,4.14,0,5.68a10.87,10.87,0,0,0,9.87,0c2.72-1.58,2.7-4.14,0-5.72"/><path class="cls-1" d="M20.72,33.16A4.35,4.35,0,0,0,19,31.47a9.2,9.2,0,0,0-3.26-1.07l-.41-.23H12.79l-.39.22a8.76,8.76,0,0,0-3.3,1.06,4.2,4.2,0,0,0-1.75,1.67l-.29.16v1.64a3.5,3.5,0,0,0,2.05,2.83,10.87,10.87,0,0,0,9.87,0,3.52,3.52,0,0,0,2-2.81V33.33Z"/><path class="cls-2" d="M19,30.41a10.87,10.87,0,0,0-9.87,0c-2.72,1.57-2.71,4.13,0,5.71a10.87,10.87,0,0,0,9.87,0c2.72-1.58,2.7-4.14,0-5.71"/><path class="cls-4" d="M14,29.69a9.48,9.48,0,0,0-4.7,1.12,3,3,0,0,0-1.79,2.44,3,3,0,0,0,1.82,2.46,9.55,9.55,0,0,0,4.71,1.12h0a9.47,9.47,0,0,0,4.66-1.12,3,3,0,0,0,1.8-2.44,3.11,3.11,0,0,0-1.8-2.46A9.51,9.51,0,0,0,14,29.69Z"/><path class="cls-2" d="M14.28,30a9.47,9.47,0,0,0-4.69,1.12,3,3,0,0,0-1.8,2.44A3,3,0,0,0,9.62,36a9.62,9.62,0,0,0,4.7,1.12h0A9.47,9.47,0,0,0,19,36a3,3,0,0,0,1.8-2.44A3,3,0,0,0,19,31.12,9.51,9.51,0,0,0,14.28,30Z"/><path class="cls-4" d="M17.72,31.31l-.5-.29a.36.36,0,0,0-.35,0l-.4.23a3.81,3.81,0,0,0-1.63-.33,2.83,2.83,0,0,0-1.36.37c-.41.23-.61.47-.6.71a1.15,1.15,0,0,0,.37.77l.18.23a2.33,2.33,0,0,1,.44.59c.06.14,0,.25-.14.34a1.2,1.2,0,0,1-1.24-.1,2.74,2.74,0,0,1-.7-.57,1.85,1.85,0,0,1-.23-.34.14.14,0,0,0-.09,0,.48.48,0,0,0-.49,0l-.57.32c-.07,0-.1.12-.06.18a3.43,3.43,0,0,0,1,.87l-.46.27c-.1.06-.1.15,0,.21l.5.29a.43.43,0,0,0,.35,0l.49-.29a3.58,3.58,0,0,0,1.55.27,3.13,3.13,0,0,0,1.4-.39,1.11,1.11,0,0,0,.53-.52.64.64,0,0,0,0-.54,2.83,2.83,0,0,0-.47-.61l-.38-.44a.57.57,0,0,1-.11-.28.34.34,0,0,1,.2-.26.9.9,0,0,1,.58-.1,1.58,1.58,0,0,1,.66.23,1.67,1.67,0,0,1,.58.51c0,.09.11.18.15.26A.28.28,0,0,0,17,33a.6.6,0,0,0,.49,0l.58-.33c.08-.05.1-.12.06-.18a2.1,2.1,0,0,0-.26-.33,2.33,2.33,0,0,0-.45-.38l.34-.26a.12.12,0,0,0,0-.21"/><path class="cls-1" d="M20.11,30.92a4.49,4.49,0,0,0-1.75-1.68,8.94,8.94,0,0,0-3.25-1.06l-.39-.26H12.18l-.39.22a9,9,0,0,0-3.3,1.07,4.35,4.35,0,0,0-1.77,1.71l-.29.16v1.6a3.56,3.56,0,0,0,2.09,2.85,10.89,10.89,0,0,0,9.88,0,3.48,3.48,0,0,0,2-2.82V31.1Z"/><path class="cls-2" d="M18.36,28.2a10.87,10.87,0,0,0-9.87,0c-2.72,1.58-2.7,4.14,0,5.72a10.89,10.89,0,0,0,9.88,0c2.71-1.58,2.7-4.14,0-5.72"/><path class="cls-5" d="M13.42,27.49a9.48,9.48,0,0,0-4.7,1.12,3,3,0,0,0-1.79,2.44,3,3,0,0,0,1.79,2.46,9.66,9.66,0,0,0,4.71,1.12h0a9.58,9.58,0,0,0,4.69-1.12,3,3,0,0,0,1.79-2.44,3,3,0,0,0-1.82-2.46A9.61,9.61,0,0,0,13.42,27.49Z"/><path class="cls-2" d="M13.72,27.8A9.38,9.38,0,0,0,9,28.92,3,3,0,0,0,7.2,31.36,3.09,3.09,0,0,0,9,33.82a9.63,9.63,0,0,0,4.7,1.1h0a9.6,9.6,0,0,0,4.7-1.1,3,3,0,0,0,1.79-2.44,3,3,0,0,0-1.82-2.46A9.37,9.37,0,0,0,13.72,27.8Z"/><path class="cls-1" d="M20.49,28.92a4.33,4.33,0,0,0-1.77-1.65,9.2,9.2,0,0,0-3.26-1.07L15.05,26H12.56l-.4.21a9.16,9.16,0,0,0-3.3,1.08,4.23,4.23,0,0,0-1.73,1.65l-.29.16v1.6A3.52,3.52,0,0,0,8.9,33.5a10.87,10.87,0,0,0,9.87,0,3.48,3.48,0,0,0,2-2.81V29.12Z"/><path class="cls-2" d="M18.72,26.22a10.89,10.89,0,0,0-9.88,0c-2.71,1.58-2.7,4.14,0,5.72a10.93,10.93,0,0,0,9.87,0c2.71-1.58,2.7-4.14,0-5.72"/><path class="cls-4" d="M13.79,25.51A9.37,9.37,0,0,0,9.1,26.63a3,3,0,0,0-1.79,2.44,3.09,3.09,0,0,0,1.82,2.46,9.66,9.66,0,0,0,4.71,1.12h0a9.58,9.58,0,0,0,4.69-1.12,3,3,0,0,0,1.79-2.44,3,3,0,0,0-1.82-2.46A9.44,9.44,0,0,0,13.79,25.51Z"/><path class="cls-2" d="M14.05,25.81a9.46,9.46,0,0,0-4.69,1.11,3,3,0,0,0-1.79,2.44,3.07,3.07,0,0,0,1.82,2.46,9.64,9.64,0,0,0,4.71,1.1h0a9.47,9.47,0,0,0,4.69-1.12,3,3,0,0,0,1.8-2.44,3.09,3.09,0,0,0-1.87-2.44A9.6,9.6,0,0,0,14.05,25.81Z"/><path class="cls-4" d="M17.49,27.12l-.5-.29a.45.45,0,0,0-.36,0l-.39.24a3.6,3.6,0,0,0-1.62-.3,3,3,0,0,0-1.37.37c-.4.23-.6.47-.59.71a1.23,1.23,0,0,0,.36.78l.19.22a3.12,3.12,0,0,1,.44.59c.06.14,0,.25-.14.34a1.16,1.16,0,0,1-1.24-.1,2.74,2.74,0,0,1-.7-.57,1.56,1.56,0,0,1-.23-.34.18.18,0,0,0-.09-.08.53.53,0,0,0-.49,0l-.57.33c-.08,0-.11.11-.06.17a3.43,3.43,0,0,0,.95.87l-.47.27a.12.12,0,0,0,0,.16.12.12,0,0,0,0,.05l.51.29a.36.36,0,0,0,.35,0l.49-.29a3.44,3.44,0,0,0,1.55.27,3,3,0,0,0,1.4-.39,1.11,1.11,0,0,0,.53-.52.7.7,0,0,0,0-.53,2.6,2.6,0,0,0-.47-.62c-.18-.2-.31-.34-.38-.44a.43.43,0,0,1-.11-.28c0-.09.07-.18.2-.26a.9.9,0,0,1,.58-.1,1.73,1.73,0,0,1,.66.23,1.55,1.55,0,0,1,.57.51c.06.09.11.18.16.27s0,.06.09.09a.6.6,0,0,0,.49,0l.57-.33c.08-.05.11-.12.07-.18a2.91,2.91,0,0,0-.26-.33,3.23,3.23,0,0,0-.45-.38l.37-.22c.1-.06.1-.15,0-.21"/><path class="cls-1" d="M20.28,26.92a4.35,4.35,0,0,0-1.75-1.68,9.2,9.2,0,0,0-3.26-1.07l-.41-.25H12.35l-.4.21a9.16,9.16,0,0,0-3.3,1.08,4.25,4.25,0,0,0-1.73,1.71l-.29.16v1.6a3.49,3.49,0,0,0,2.09,2.78,10.87,10.87,0,0,0,9.87,0,3.48,3.48,0,0,0,2-2.81V27Z"/><path class="cls-2" d="M18.53,24.14a10.89,10.89,0,0,0-9.88,0c-2.71,1.58-2.7,4.14,0,5.72a10.93,10.93,0,0,0,9.87,0c2.71-1.58,2.7-4.14,0-5.72"/><path class="cls-4" d="M13.58,23.43a9.37,9.37,0,0,0-4.69,1.12A3,3,0,0,0,7.1,27a3.09,3.09,0,0,0,1.82,2.46,9.66,9.66,0,0,0,4.71,1.12h0a9.58,9.58,0,0,0,4.69-1.12A3,3,0,0,0,20.11,27a3,3,0,0,0-1.82-2.46A9.44,9.44,0,0,0,13.58,23.43Z"/><path class="cls-2" d="M13.79,23.73a9.54,9.54,0,0,0-4.67,1.19,3,3,0,0,0-1.76,2.47,3.06,3.06,0,0,0,1.86,2.43,9.68,9.68,0,0,0,4.72,1.1h0a9.44,9.44,0,0,0,4.68-1.18,3,3,0,0,0,1.76-2.47,3.06,3.06,0,0,0-1.86-2.43A9.61,9.61,0,0,0,13.79,23.73Z"/><path class="cls-1" d="M20,24.79a4.29,4.29,0,0,0-1.75-1.68A9.15,9.15,0,0,0,15,22l-.41-.22H12l-.39.21a9,9,0,0,0-3.3,1.08A4.35,4.35,0,0,0,6.59,24.8l-.29.12v1.6a3.52,3.52,0,0,0,2.06,2.82,10.87,10.87,0,0,0,9.87,0,3.48,3.48,0,0,0,2-2.81V24.92Z"/><path class="cls-1" d="M18.2,22.06a10.87,10.87,0,0,0-9.87,0c-2.72,1.58-2.7,4.14,0,5.72a10.93,10.93,0,0,0,9.87,0c2.72-1.58,2.71-4.14,0-5.72"/><path class="cls-1" d="M13.26,21.35a9.37,9.37,0,0,0-4.69,1.12,3,3,0,0,0-1.8,2.45A3.07,3.07,0,0,0,8.6,27.38a9.62,9.62,0,0,0,4.7,1.12h0A9.59,9.59,0,0,0,18,27.38a3,3,0,0,0,1.79-2.46A3,3,0,0,0,18,22.46,9.47,9.47,0,0,0,13.26,21.35Z"/><path class="cls-1" d="M13.52,21.65a9.47,9.47,0,0,0-4.69,1.12A3,3,0,0,0,7,25.21a3,3,0,0,0,1.82,2.46,9.55,9.55,0,0,0,4.71,1.12h0a9.47,9.47,0,0,0,4.69-1.12,3,3,0,0,0,1.79-2.44,3.08,3.08,0,0,0-1.82-2.46A9.66,9.66,0,0,0,13.52,21.65Z"/><path class="cls-1" d="M17,22.92l-.5-.29a.45.45,0,0,0-.36,0l-.38.29a3.6,3.6,0,0,0-1.62-.3,3,3,0,0,0-1.36.37c-.4.23-.6.47-.6.71a1.3,1.3,0,0,0,.37.78l.19.22a3.07,3.07,0,0,1,.43.59c.07.14,0,.25-.13.34a1.17,1.17,0,0,1-1.28-.11,3,3,0,0,1-.69-.6,1.85,1.85,0,0,1-.23-.34.14.14,0,0,0-.08,0,.55.55,0,0,0-.5,0l-.56.33c-.08,0-.11.11-.07.17a3.21,3.21,0,0,0,1,.87l-.47.27c-.1.06-.1.15,0,.21l.5.29a.38.38,0,0,0,.36,0l.49-.28a3.57,3.57,0,0,0,1.55.26,3,3,0,0,0,1.4-.39,1.11,1.11,0,0,0,.53-.52.7.7,0,0,0,0-.53,2.6,2.6,0,0,0-.47-.62c-.18-.2-.31-.34-.38-.44a.43.43,0,0,1-.11-.28c0-.09.07-.18.2-.26a1,1,0,0,1,.57-.1,1.78,1.78,0,0,1,.67.23,1.85,1.85,0,0,1,.57.51,1.17,1.17,0,0,1,.15.27l.09.09a.62.62,0,0,0,.5,0l.57-.33c.08-.05.11-.12.07-.18a2.91,2.91,0,0,0-.26-.33,3.32,3.32,0,0,0-.46-.38l.38-.22c.1-.06.1-.15,0-.21"/><path class="cls-1" d="M20.85,22.8a4.35,4.35,0,0,0-1.75-1.68,9.41,9.41,0,0,0-3.26-1.07l-.4-.22H12.92l-.39.22a9,9,0,0,0-3.3,1.07,4.35,4.35,0,0,0-1.74,1.69L7.2,23v1.6A3.53,3.53,0,0,0,9.26,27.4a10.93,10.93,0,0,0,9.87,0,3.48,3.48,0,0,0,2-2.81V23Z"/><path class="cls-2" d="M19.1,20.07a10.87,10.87,0,0,0-9.87,0c-2.72,1.58-2.71,4.14,0,5.72a10.87,10.87,0,0,0,9.87,0c2.72-1.58,2.7-4.14,0-5.72"/><path class="cls-4" d="M14.16,19.36a9.48,9.48,0,0,0-4.7,1.12,3,3,0,0,0-1.74,2.44,3.07,3.07,0,0,0,1.82,2.46,9.66,9.66,0,0,0,4.71,1.12h0a9.58,9.58,0,0,0,4.69-1.12,3,3,0,0,0,1.78-2.46,3.05,3.05,0,0,0-1.83-2.46A9.52,9.52,0,0,0,14.16,19.36Z"/><path class="cls-2" d="M14.42,19.66a9.48,9.48,0,0,0-4.7,1.12,3,3,0,0,0-1.8,2.44,3,3,0,0,0,1.8,2.46,9.49,9.49,0,0,0,4.7,1.13h0a9.47,9.47,0,0,0,4.69-1.12,3,3,0,0,0,1.8-2.44,3.06,3.06,0,0,0-1.83-2.47A9.58,9.58,0,0,0,14.42,19.66Z"/><path class="cls-4" d="M17.85,21l-.5-.29a.36.36,0,0,0-.35,0l-.4.23a3.6,3.6,0,0,0-1.62-.3,3,3,0,0,0-1.36.37c-.41.24-.61.47-.6.71a1.17,1.17,0,0,0,.37.78l.18.22a2.83,2.83,0,0,1,.44.59.26.26,0,0,1-.11.34h0a1.2,1.2,0,0,1-1.24-.1,2.61,2.61,0,0,1-.7-.58,1.94,1.94,0,0,1-.23-.33.2.2,0,0,0-.09-.09.53.53,0,0,0-.49,0l-.57.38a.12.12,0,0,0-.06.17h0a3.31,3.31,0,0,0,1,.86l-.46.28c-.1.05-.1.14,0,.2l.5.29a.36.36,0,0,0,.35,0l.49-.28a3.57,3.57,0,0,0,1.55.26,2.89,2.89,0,0,0,1.4-.39,1.11,1.11,0,0,0,.53-.52.62.62,0,0,0,0-.53,2.6,2.6,0,0,0-.47-.62c-.18-.2-.31-.34-.38-.44a.43.43,0,0,1-.11-.28.34.34,0,0,1,.2-.25.91.91,0,0,1,.58-.11,1.85,1.85,0,0,1,1.24.75,1.35,1.35,0,0,1,.15.26.2.2,0,0,0,.09.09.53.53,0,0,0,.49,0l.58-.33c.08-.05.1-.12.06-.18a2.1,2.1,0,0,0-.26-.33,3.23,3.23,0,0,0-.45-.38l.38-.22a.11.11,0,0,0,.05-.15A.12.12,0,0,0,18,21"/><path class="cls-1" d="M20.11,20.72A4.49,4.49,0,0,0,18.36,19,8.94,8.94,0,0,0,15.11,18l-.39-.22H12.18l-.39.21A9.14,9.14,0,0,0,8.49,19a4.36,4.36,0,0,0-1.77,1.69l-.26.19v1.6a3.54,3.54,0,0,0,2.06,2.8,10.89,10.89,0,0,0,9.88,0,3.48,3.48,0,0,0,2-2.82V20.92Z"/><path class="cls-2" d="M18.36,18a10.87,10.87,0,0,0-9.87,0c-2.72,1.58-2.7,4.14,0,5.72a10.89,10.89,0,0,0,9.88,0c2.71-1.58,2.7-4.14,0-5.72"/><path class="cls-4" d="M13.42,17.28a9.48,9.48,0,0,0-4.7,1.12,3,3,0,0,0-1.79,2.44A3,3,0,0,0,8.72,23.3a9.55,9.55,0,0,0,4.71,1.12h0a9.47,9.47,0,0,0,4.69-1.12,3,3,0,0,0,1.79-2.44,3.08,3.08,0,0,0-1.82-2.46A9.61,9.61,0,0,0,13.42,17.28Z"/><path class="cls-2" d="M13.72,17.59A9.47,9.47,0,0,0,9,18.71a3,3,0,0,0-1.79,2.44A3.06,3.06,0,0,0,9,23.61a9.62,9.62,0,0,0,4.7,1.12h0a9.58,9.58,0,0,0,4.69-1.12,3,3,0,0,0,1.79-2.44,3,3,0,0,0-1.82-2.46A9.58,9.58,0,0,0,13.72,17.59Z"/><path class="cls-1" d="M19.9,18.64a4.45,4.45,0,0,0-1.75-1.72,9.24,9.24,0,0,0-3.25-1l-.41-.22H12l-.39.22a9.16,9.16,0,0,0-3.3,1,4.2,4.2,0,0,0-1.73,1.69l-.3.16v1.6A3.53,3.53,0,0,0,8.31,23.2a10.89,10.89,0,0,0,9.88,0,3.48,3.48,0,0,0,2-2.82V18.81Z"/><path class="cls-2" d="M18.15,15.92a10.93,10.93,0,0,0-9.87,0c-2.72,1.58-2.7,4.14,0,5.72a10.89,10.89,0,0,0,9.88,0c2.71-1.58,2.7-4.14,0-5.72"/><path class="cls-3" d="M13.21,15.2a9.47,9.47,0,0,0-4.69,1.12,3,3,0,0,0-1.8,2.44,3,3,0,0,0,1.83,2.46,9.55,9.55,0,0,0,4.71,1.12h0A9.47,9.47,0,0,0,18,21.22a3,3,0,0,0,1.77-2.44,3.07,3.07,0,0,0-1.8-2.46A9.66,9.66,0,0,0,13.21,15.2Z"/><path class="cls-2" d="M13.47,15.51a9.47,9.47,0,0,0-4.69,1.12A3,3,0,0,0,7,19.07a3.07,3.07,0,0,0,1.82,2.46,9.66,9.66,0,0,0,4.71,1.12h0a9.58,9.58,0,0,0,4.69-1.12A3,3,0,0,0,20,19.09a3,3,0,0,0-1.82-2.46A9.55,9.55,0,0,0,13.47,15.51Z"/><path class="cls-1" d="M38,39.14a4.49,4.49,0,0,0-1.75-1.68A9,9,0,0,0,33,36.4l-.4-.23H30.08l-.39.22a9,9,0,0,0-3.3,1.07,4.29,4.29,0,0,0-1.74,1.69l-.29.16v1.61a3.53,3.53,0,0,0,2.06,2.83,10.93,10.93,0,0,0,9.87,0,3.48,3.48,0,0,0,2-2.82V39.31Z"/><path class="cls-2" d="M36.26,36.41a10.87,10.87,0,0,0-9.87,0c-2.72,1.58-2.71,4.14,0,5.72a10.87,10.87,0,0,0,9.87,0c2.72-1.58,2.7-4.14,0-5.72"/><path class="cls-3" d="M31.31,35.7a9.47,9.47,0,0,0-4.69,1.12,3,3,0,0,0-1.79,2.44,3.07,3.07,0,0,0,1.82,2.46,9.66,9.66,0,0,0,4.71,1.12h0a9.58,9.58,0,0,0,4.69-1.12,3,3,0,0,0,1.79-2.44A3,3,0,0,0,36,36.82,9.55,9.55,0,0,0,31.31,35.7Z"/><path class="cls-2" d="M31.58,36a9.35,9.35,0,0,0-4.69,1.13,3,3,0,0,0-1.8,2.44A3.07,3.07,0,0,0,26.92,42a9.62,9.62,0,0,0,4.7,1.12h0A9.47,9.47,0,0,0,36.31,42a3,3,0,0,0,1.8-2.44,3,3,0,0,0-1.83-2.46A9.39,9.39,0,0,0,31.58,36Z"/><path class="cls-4" d="M35,37.32l-.5-.29a.36.36,0,0,0-.35,0l-.4.23a3.6,3.6,0,0,0-1.62-.3,3,3,0,0,0-1.36.37c-.41.24-.61.47-.6.71a1.23,1.23,0,0,0,.36.78l.19.22a2.9,2.9,0,0,1,.44.6c.06.13,0,.25-.14.34a1.2,1.2,0,0,1-1.24-.1,2.61,2.61,0,0,1-.7-.58,1.94,1.94,0,0,1-.23-.33.2.2,0,0,0-.09-.09.53.53,0,0,0-.49,0l-.57.33c-.08,0-.1.12-.06.18a3.39,3.39,0,0,0,1,.86l-.47.28a.1.1,0,0,0-.05.14.1.1,0,0,0,.05.06l.5.29A.36.36,0,0,0,29,41l.49-.28A3.73,3.73,0,0,0,31,41a3.14,3.14,0,0,0,1.4-.4,1.11,1.11,0,0,0,.53-.52.62.62,0,0,0,0-.53,2.6,2.6,0,0,0-.47-.62c-.18-.2-.31-.34-.38-.44a.43.43,0,0,1-.11-.28.34.34,0,0,1,.2-.25.91.91,0,0,1,.58-.11,1.73,1.73,0,0,1,.66.23,1.67,1.67,0,0,1,.57.52,2.26,2.26,0,0,1,.16.26.2.2,0,0,0,.09.09.52.52,0,0,0,.47,0l.57-.33c.09-.05.11-.12.07-.18a2.1,2.1,0,0,0-.26-.33,3.23,3.23,0,0,0-.45-.38l.37-.22a.1.1,0,0,0,.1-.1.09.09,0,0,0-.1-.1"/><path class="cls-1" d="M38.42,36.84a4.36,4.36,0,0,0-1.7-1.68,9.2,9.2,0,0,0-3.26-1.07l-.4-.22H30.49l-.39.21a9,9,0,0,0-3.3,1.08,4.35,4.35,0,0,0-1.74,1.69l-.29.16v1.6a3.52,3.52,0,0,0,2.06,2.82,10.87,10.87,0,0,0,9.87,0,3.48,3.48,0,0,0,2-2.82V37Z"/><path class="cls-2" d="M36.72,34.11a10.87,10.87,0,0,0-9.87,0c-2.72,1.58-2.71,4.14,0,5.72a10.93,10.93,0,0,0,9.87,0c2.72-1.58,2.7-4.14,0-5.72"/><path class="cls-4" d="M31.72,33.4A9.38,9.38,0,0,0,27,34.52a3,3,0,0,0-1.78,2.4,3.09,3.09,0,0,0,1.82,2.46,9.66,9.66,0,0,0,4.71,1.12h0a9.58,9.58,0,0,0,4.69-1.12,3,3,0,0,0,1.8-2.44,3.05,3.05,0,0,0-1.83-2.46A9.51,9.51,0,0,0,31.72,33.4Z"/><path class="cls-1" d="M32,33.7a9.47,9.47,0,0,0-4.69,1.12,3,3,0,0,0-1.8,2.44,3,3,0,0,0,1.83,2.46A9.48,9.48,0,0,0,32,40.84h0a9.47,9.47,0,0,0,4.69-1.12,3,3,0,0,0,1.79-2.44,3.06,3.06,0,0,0-1.79-2.46A9.49,9.49,0,0,0,32,33.7Z"/><path class="cls-4" d="M35.42,35l-.5-.29a.43.43,0,0,0-.35,0l-.4.24a3.6,3.6,0,0,0-1.62-.3,3,3,0,0,0-1.36.37c-.41.23-.61.47-.6.71a1.17,1.17,0,0,0,.37.78l.18.22a2.59,2.59,0,0,1,.44.59c.06.14,0,.25-.14.34a1.16,1.16,0,0,1-1.24-.1,2.74,2.74,0,0,1-.7-.57,1.85,1.85,0,0,1-.23-.34.18.18,0,0,0-.09-.08.48.48,0,0,0-.49,0l-.57.34a.12.12,0,0,0-.07.15v0A3.43,3.43,0,0,0,29,38l-.46.27c-.1.06-.1.15,0,.21l.5.29a.36.36,0,0,0,.35,0l.49-.29a3.58,3.58,0,0,0,1.55.27,3.13,3.13,0,0,0,1.4-.39,1.11,1.11,0,0,0,.53-.52.62.62,0,0,0,0-.53,2.36,2.36,0,0,0-.47-.62c-.18-.2-.31-.34-.38-.44a.42.42,0,0,1-.1-.28.32.32,0,0,1,.19-.26.9.9,0,0,1,.58-.1,1.73,1.73,0,0,1,.66.23,1.67,1.67,0,0,1,.58.51c0,.09.11.18.15.27l.09.09a.62.62,0,0,0,.5,0l.57-.33c.08,0,.1-.12.06-.18a2.1,2.1,0,0,0-.26-.33,3.23,3.23,0,0,0-.45-.38l.38-.22a.12.12,0,0,0,0-.21"/><path class="cls-1" d="M38.21,34.76a4.35,4.35,0,0,0-1.75-1.68A9.2,9.2,0,0,0,33.2,32l-.4-.22H30.28l-.39.21a9,9,0,0,0-3.3,1.08,4.35,4.35,0,0,0-1.74,1.69l-.29.16v1.6a3.52,3.52,0,0,0,2.06,2.82,10.87,10.87,0,0,0,9.87,0,3.48,3.48,0,0,0,2-2.81V34.92Z"/><path class="cls-2" d="M36.46,32a10.87,10.87,0,0,0-9.87,0c-2.72,1.58-2.71,4.14,0,5.72a10.93,10.93,0,0,0,9.87,0c2.72-1.58,2.7-4.14,0-5.72"/><path class="cls-3" d="M31.52,31.32a9.38,9.38,0,0,0-4.7,1.12A3,3,0,0,0,25,34.92a3.09,3.09,0,0,0,1.82,2.46,9.66,9.66,0,0,0,4.71,1.12h0a9.58,9.58,0,0,0,4.69-1.12,3,3,0,0,0,1.8-2.46,3.05,3.05,0,0,0-1.83-2.46A9.5,9.5,0,0,0,31.52,31.32Z"/><path class="cls-2" d="M31.78,31.62a9.47,9.47,0,0,0-4.69,1.12,3,3,0,0,0-1.8,2.44,3,3,0,0,0,1.83,2.46,9.48,9.48,0,0,0,4.7,1.12h0a9.48,9.48,0,0,0,4.7-1.12,3,3,0,0,0,1.79-2.44,3.05,3.05,0,0,0-1.83-2.46A9.51,9.51,0,0,0,31.78,31.62Z"/><path class="cls-4" d="M35.21,32.92l-.5-.29a.43.43,0,0,0-.35,0l-.4.24a3.6,3.6,0,0,0-1.62-.3,3,3,0,0,0-1.36.37c-.41.23-.61.47-.6.71a1.17,1.17,0,0,0,.37.78l.18.22a2.59,2.59,0,0,1,.44.59c.06.14,0,.25-.14.34a1.16,1.16,0,0,1-1.24-.1,2.74,2.74,0,0,1-.7-.57,1.85,1.85,0,0,1-.23-.34.18.18,0,0,0-.09-.08.48.48,0,0,0-.49,0l-.57.33a.12.12,0,0,0-.07.15v0a3.43,3.43,0,0,0,.95.87l-.46.27c-.1.06-.1.15,0,.21l.5.29a.36.36,0,0,0,.35,0l.49-.29a3.58,3.58,0,0,0,1.55.27,3.13,3.13,0,0,0,1.4-.39,1.11,1.11,0,0,0,.53-.52.62.62,0,0,0,0-.53,2.36,2.36,0,0,0-.47-.62c-.18-.2-.31-.34-.38-.44a.42.42,0,0,1-.1-.28.32.32,0,0,1,.19-.26.9.9,0,0,1,.58-.1,1.73,1.73,0,0,1,.66.23,1.67,1.67,0,0,1,.58.51c0,.09.11.18.15.27l.09.09a.62.62,0,0,0,.5,0l.57-.33c.08,0,.1-.12.06-.18a2.1,2.1,0,0,0-.26-.33,3.23,3.23,0,0,0-.45-.38l.38-.22a.12.12,0,0,0,0-.21"/><path class="cls-1" d="M38.21,31.92a4.39,4.39,0,0,0-1.74-1.68,9.17,9.17,0,0,0-3.25-1.08l-.41-.24H30.29l-.39.21a9,9,0,0,0-3.3,1.07,4.26,4.26,0,0,0-1.75,1.72l-.29.16v1.6a3.5,3.5,0,0,0,2.05,2.83,10.87,10.87,0,0,0,9.87,0,3.48,3.48,0,0,0,2-2.81V32.11Z"/><path class="cls-2" d="M36.46,29.19a10.87,10.87,0,0,0-9.87,0c-2.72,1.58-2.71,4.14,0,5.72a10.87,10.87,0,0,0,9.87,0c2.72-1.58,2.7-4.14,0-5.72"/><path class="cls-4" d="M31.52,28.48a9.48,9.48,0,0,0-4.7,1.12A3,3,0,0,0,25,32a3.07,3.07,0,0,0,1.82,2.46,9.66,9.66,0,0,0,4.71,1.12h0a9.58,9.58,0,0,0,4.69-1.12,3,3,0,0,0,1.8-2.44,3.05,3.05,0,0,0-1.83-2.46A9.51,9.51,0,0,0,31.52,28.48Z"/><path class="cls-2" d="M31.78,28.79a9.59,9.59,0,0,0-4.69,1.13,3,3,0,0,0-1.8,2.44,3,3,0,0,0,1.83,2.46,9.63,9.63,0,0,0,4.7,1.1h0a9.59,9.59,0,0,0,4.7-1.12,3,3,0,0,0,1.79-2.44,3.06,3.06,0,0,0-1.83-2.44A9.6,9.6,0,0,0,31.78,28.79Z"/><path class="cls-4" d="M35.21,30.1l-.5-.29a.36.36,0,0,0-.35,0L34,30a3.89,3.89,0,0,0-1.62-.3,3.08,3.08,0,0,0-1.36.38c-.41.23-.61.47-.6.71a1.2,1.2,0,0,0,.37.77l.18.22a2.9,2.9,0,0,1,.44.6c.06.14,0,.25-.14.34a1.2,1.2,0,0,1-1.24-.1,2.74,2.74,0,0,1-.7-.57,4,4,0,0,1-.23-.34L29,31.66a.53.53,0,0,0-.49,0l-.57.33c-.07,0-.1.12-.06.18a3.43,3.43,0,0,0,.95.87l-.46.27c-.1.06-.1.15,0,.21l.5.28a.36.36,0,0,0,.35,0l.53-.28a3.58,3.58,0,0,0,1.55.27,3.14,3.14,0,0,0,1.4-.4,1.09,1.09,0,0,0,.53-.51.64.64,0,0,0,0-.54,2.6,2.6,0,0,0-.47-.62c-.18-.19-.31-.34-.38-.43a.42.42,0,0,1-.1-.28c0-.1.06-.18.19-.26a.84.84,0,0,1,.58-.1,1.58,1.58,0,0,1,.66.23,1.67,1.67,0,0,1,.58.51c0,.09.11.17.15.26a.2.2,0,0,0,.09.09.55.55,0,0,0,.5,0l.57-.34a.12.12,0,0,0,.08-.14l0,0a2.1,2.1,0,0,0-.26-.33,2.74,2.74,0,0,0-.45-.39l.38-.21a.12.12,0,0,0,0-.21"/><path class="cls-1" d="M37.61,29.72A4.29,4.29,0,0,0,35.86,28,9.15,9.15,0,0,0,32.61,27l-.41-.22H29.72l-.39.22A9,9,0,0,0,26,28a4.2,4.2,0,0,0-1.73,1.69l-.3.16v1.6a3.55,3.55,0,0,0,2,2.83,11,11,0,0,0,9.88,0,3.48,3.48,0,0,0,2-2.82V29.92Z"/><path class="cls-2" d="M35.86,27A10.87,10.87,0,0,0,26,27c-2.71,1.58-2.7,4.14,0,5.72a10.89,10.89,0,0,0,9.88,0c2.71-1.58,2.7-4.14,0-5.72"/><path class="cls-5" d="M30.92,26.28a9.47,9.47,0,0,0-4.69,1.12,3,3,0,0,0-1.79,2.44,3,3,0,0,0,1.82,2.46A9.66,9.66,0,0,0,31,33.42h0a9.58,9.58,0,0,0,4.69-1.12,3,3,0,0,0,1.79-2.44,3,3,0,0,0-1.82-2.46A9.66,9.66,0,0,0,30.92,26.28Z"/><path class="cls-2" d="M31.18,26.58a9.47,9.47,0,0,0-4.69,1.12,3,3,0,0,0-1.77,2.44,3,3,0,0,0,1.82,2.46,9.56,9.56,0,0,0,4.71,1.13h0a9.58,9.58,0,0,0,4.69-1.12,3,3,0,0,0,1.78-2.44,3,3,0,0,0-1.82-2.46A9.49,9.49,0,0,0,31.18,26.58Z"/><path class="cls-4" d="M34.62,27.92l-.5-.29a.38.38,0,0,0-.36,0l-.4.23a3.6,3.6,0,0,0-1.62-.3,3,3,0,0,0-1.36.37c-.4.24-.6.47-.6.71a1.3,1.3,0,0,0,.37.78l.19.22a3.62,3.62,0,0,1,.44.59.26.26,0,0,1-.13.34h0a1.2,1.2,0,0,1-1.24-.1,2.64,2.64,0,0,1-.68-.56,1.5,1.5,0,0,1-.23-.33.2.2,0,0,0-.09-.09.55.55,0,0,0-.5,0l-.56.33a.12.12,0,0,0-.08.15,0,0,0,0,0,0,0,3.31,3.31,0,0,0,1,.86l-.47.28c-.1,0-.1.14,0,.2l.5.29a.38.38,0,0,0,.36,0l.49-.28a3.57,3.57,0,0,0,1.55.26,3,3,0,0,0,1.4-.39,1.11,1.11,0,0,0,.53-.52.7.7,0,0,0,0-.53,2.6,2.6,0,0,0-.47-.62c-.18-.2-.31-.34-.38-.44a.43.43,0,0,1-.11-.28c0-.09.07-.18.2-.25a.91.91,0,0,1,.58-.11,1.73,1.73,0,0,1,.66.23,1.67,1.67,0,0,1,.57.52,1.35,1.35,0,0,1,.15.26.22.22,0,0,0,.1.09.53.53,0,0,0,.49,0l.57-.33c.08-.05.11-.12.07-.18a2.91,2.91,0,0,0-.26-.33,3.32,3.32,0,0,0-.46-.38l.38-.22a.1.1,0,0,0,.1-.1.09.09,0,0,0-.1-.1"/><path class="cls-1" d="M38,27.73a4.39,4.39,0,0,0-1.75-1.67A9.2,9.2,0,0,0,33,25l-.41-.22H30.06l-.39.21a9,9,0,0,0-3.31,1.08,4.37,4.37,0,0,0-1.73,1.68l-.29.16v1.6a3.51,3.51,0,0,0,2.06,2.83,10.87,10.87,0,0,0,9.87,0,3.48,3.48,0,0,0,2-2.82V27.92Z"/><path class="cls-2" d="M36.24,25a10.89,10.89,0,0,0-9.88,0c-2.71,1.57-2.7,4.13,0,5.71a10.87,10.87,0,0,0,9.87,0c2.72-1.58,2.7-4.14,0-5.71"/><path class="cls-4" d="M31.29,24.29a9.47,9.47,0,0,0-4.69,1.12,3,3,0,0,0-1.79,2.44,3,3,0,0,0,1.82,2.46,9.56,9.56,0,0,0,4.71,1.13h0A9.58,9.58,0,0,0,36,30.32a3,3,0,0,0,1.79-2.4A3.07,3.07,0,0,0,36,25.45,9.56,9.56,0,0,0,31.29,24.29Z"/><path class="cls-2" d="M31.56,24.6a9.48,9.48,0,0,0-4.7,1.12,3,3,0,0,0-1.79,2.44,3.07,3.07,0,0,0,1.82,2.46,9.66,9.66,0,0,0,4.71,1.12h0a9.58,9.58,0,0,0,4.69-1.12,3,3,0,0,0,1.8-2.44,3.05,3.05,0,0,0-1.83-2.46A9.51,9.51,0,0,0,31.56,24.6Z"/><path class="cls-4" d="M35,25.92l-.5-.29a.45.45,0,0,0-.36,0l-.39.23a3.91,3.91,0,0,0-1.62-.29,2.75,2.75,0,0,0-1.4.35c-.41.23-.61.47-.6.71a1.23,1.23,0,0,0,.36.78l.19.22a3.12,3.12,0,0,1,.44.59c.06.14,0,.25-.14.34a1.2,1.2,0,0,1-1.24-.1,2.74,2.74,0,0,1-.7-.57,1.85,1.85,0,0,1-.23-.34.18.18,0,0,0-.09-.08.48.48,0,0,0-.49,0l-.57.32c-.08.05-.11.12-.06.18a3.43,3.43,0,0,0,.95.87l-.47.27a.12.12,0,0,0-.05.16l.05.05.51.29a.43.43,0,0,0,.35,0l.49-.29a3.58,3.58,0,0,0,1.55.27,3.13,3.13,0,0,0,1.4-.39,1.11,1.11,0,0,0,.53-.52.72.72,0,0,0,0-.54,3.1,3.1,0,0,0-.47-.61l-.38-.44a.49.49,0,0,1-.11-.28c0-.1.07-.18.2-.26a.9.9,0,0,1,.58-.1,1.88,1.88,0,0,1,1.23.74c.06.09.11.18.16.27s0,.06.09.09a.6.6,0,0,0,.49,0l.57-.33c.08,0,.11-.12.07-.18a2.91,2.91,0,0,0-.26-.33,2.33,2.33,0,0,0-.45-.38l.37-.22c.1-.06.1-.15,0-.21"/><path class="cls-1" d="M37.78,25.65A4.39,4.39,0,0,0,36,24a9,9,0,0,0-3.26-1.06l-.41-.22H29.85l-.39.21A9,9,0,0,0,26.15,24a4.37,4.37,0,0,0-1.73,1.68l-.29.16v1.6a3.51,3.51,0,0,0,2.06,2.83,10.87,10.87,0,0,0,9.87,0,3.48,3.48,0,0,0,2-2.82V25.82Z"/><path class="cls-2" d="M36,22.92a10.89,10.89,0,0,0-9.88,0c-2.71,1.57-2.7,4.13,0,5.71a10.87,10.87,0,0,0,9.87,0c2.72-1.58,2.7-4.14,0-5.71"/><path class="cls-4" d="M31.08,22.21a9.47,9.47,0,0,0-4.69,1.12,3,3,0,0,0-1.79,2.44,3,3,0,0,0,1.82,2.46,9.56,9.56,0,0,0,4.71,1.13h0a9.58,9.58,0,0,0,4.69-1.12,3,3,0,0,0,1.79-2.44,3,3,0,0,0-1.82-2.46A9.45,9.45,0,0,0,31.08,22.21Z"/><path class="cls-2" d="M31.29,22.52a9.54,9.54,0,0,0-4.67,1.19,3,3,0,0,0-1.76,2.46,3.09,3.09,0,0,0,1.86,2.44,9.64,9.64,0,0,0,4.72,1h0a9.55,9.55,0,0,0,4.68-1.19A3,3,0,0,0,37.88,26,3.1,3.1,0,0,0,36,23.52,9.68,9.68,0,0,0,31.29,22.52Z"/><path class="cls-4" d="M34.78,23.83l-.5-.29a.45.45,0,0,0-.36,0l-.39.23a3.91,3.91,0,0,0-1.62-.29,2.83,2.83,0,0,0-1.36.37c-.41.23-.61.47-.6.71a1.23,1.23,0,0,0,.36.78l.19.22a3.12,3.12,0,0,1,.44.59c.06.14,0,.25-.14.34a1.2,1.2,0,0,1-1.24-.1,3,3,0,0,1-.7-.57,1.85,1.85,0,0,1-.23-.34.18.18,0,0,0-.09-.08.48.48,0,0,0-.49,0l-.57.32c-.08.05-.11.12-.06.18a3.43,3.43,0,0,0,.95.87L27.9,27a.12.12,0,0,0,0,.16.12.12,0,0,0,0,.05l.51.29a.43.43,0,0,0,.35,0l.49-.29a3.58,3.58,0,0,0,1.55.27,3.13,3.13,0,0,0,1.4-.39,1.11,1.11,0,0,0,.53-.52.62.62,0,0,0,0-.53,2.6,2.6,0,0,0-.47-.62L31.88,25a.49.49,0,0,1-.11-.28c0-.1.07-.18.2-.26a.9.9,0,0,1,.58-.1,1.87,1.87,0,0,1,1.17.74c.06.09.11.18.16.27s0,.06.09.09a.6.6,0,0,0,.49,0l.57-.33c.08,0,.11-.12.07-.18a2.91,2.91,0,0,0-.26-.33,2.33,2.33,0,0,0-.45-.38l.37-.22c.1-.06.1-.15,0-.21"/><path class="cls-1" d="M37.45,23.57a4.36,4.36,0,0,0-1.73-1.65,9.15,9.15,0,0,0-3.25-1.07l-.41-.22H29.52l-.39.21a9,9,0,0,0-3.3,1.08,4.33,4.33,0,0,0-1.74,1.68l-.29.16v1.6a3.53,3.53,0,0,0,2.06,2.83,10.87,10.87,0,0,0,9.87,0,3.48,3.48,0,0,0,2-2.82V23.74Z"/><path class="cls-1" d="M35.72,20.85a10.87,10.87,0,0,0-9.87,0c-2.72,1.57-2.7,4.13,0,5.71a10.87,10.87,0,0,0,9.87,0c2.72-1.58,2.71-4.14,0-5.71"/><path class="cls-1" d="M30.72,20.13A9.47,9.47,0,0,0,26,21.25a3,3,0,0,0-1.8,2.44,3.06,3.06,0,0,0,1.83,2.47,9.62,9.62,0,0,0,4.7,1.12h0a9.59,9.59,0,0,0,4.7-1.12,3,3,0,0,0,1.79-2.44,3,3,0,0,0-1.83-2.46A9.39,9.39,0,0,0,30.72,20.13Z"/><path class="cls-1" d="M31,20.44a9.47,9.47,0,0,0-4.69,1.12A3,3,0,0,0,24.54,24a3.07,3.07,0,0,0,1.82,2.46,9.66,9.66,0,0,0,4.71,1.12h0a9.54,9.54,0,0,0,4.65-1.12A3,3,0,0,0,37.51,24a3.06,3.06,0,0,0-1.79-2.46A9.62,9.62,0,0,0,31,20.44Z"/><path class="cls-1" d="M34.46,21.75l-.5-.29a.45.45,0,0,0-.36,0l-.4.23a3.61,3.61,0,0,0-1.62-.29,2.83,2.83,0,0,0-1.36.37c-.4.23-.6.47-.6.71a1.3,1.3,0,0,0,.37.78l.19.22a2.79,2.79,0,0,1,.43.59c.07.14,0,.25-.13.34a1.2,1.2,0,0,1-1.24-.1,2.74,2.74,0,0,1-.7-.57,1.31,1.31,0,0,1-.24-.34s0-.07-.08-.08a.5.5,0,0,0-.5,0l-.56.32c-.08.05-.11.12-.07.18a3.21,3.21,0,0,0,1,.87l-.47.27c-.1.06-.1.15,0,.21l.5.29a.45.45,0,0,0,.36,0l.49-.29a3.44,3.44,0,0,0,1.55.27,3.13,3.13,0,0,0,1.4-.39,1.11,1.11,0,0,0,.53-.52.62.62,0,0,0,0-.53,2.6,2.6,0,0,0-.47-.62l-.46-.46a.43.43,0,0,1-.11-.28c0-.1.07-.18.2-.26a.86.86,0,0,1,.57-.1,1.58,1.58,0,0,1,.67.23,1.85,1.85,0,0,1,.57.51,1.17,1.17,0,0,1,.15.27l.09.09a.62.62,0,0,0,.5,0l.57-.33c.08,0,.11-.12.07-.18a2.91,2.91,0,0,0-.26-.33,2.82,2.82,0,0,0-.46-.38l.38-.22c.1-.06.1-.15,0-.21"/><path class="cls-1" d="M38.35,21.59a4.39,4.39,0,0,0-1.75-1.67,9.2,9.2,0,0,0-3.26-1.07l-.4-.22H30.42l-.39.21a9,9,0,0,0-3.31,1.08A4.35,4.35,0,0,0,25,21.61l-.29.16v1.6a3.54,3.54,0,0,0,2,2.81,10.87,10.87,0,0,0,9.87,0,3.48,3.48,0,0,0,2-2.81V21.76Z"/><path class="cls-2" d="M36.6,18.86a10.87,10.87,0,0,0-9.87,0C24,20.44,24,23,26.73,24.58a10.93,10.93,0,0,0,9.87,0c2.72-1.58,2.7-4.14,0-5.72"/><path class="cls-4" d="M31.66,18.15A9.38,9.38,0,0,0,27,19.27a3,3,0,0,0-1.79,2.44A3.09,3.09,0,0,0,27,24.17a9.62,9.62,0,0,0,4.73,1.12h0a9.58,9.58,0,0,0,4.69-1.12,3,3,0,0,0,1.8-2.44,3.05,3.05,0,0,0-1.83-2.46A9.48,9.48,0,0,0,31.66,18.15Z"/><path class="cls-2" d="M31.92,18.45a9.47,9.47,0,0,0-4.69,1.12A3,3,0,0,0,25.43,22a3,3,0,0,0,1.83,2.46A9.48,9.48,0,0,0,32,25.59h0a9.48,9.48,0,0,0,4.7-1.12A3,3,0,0,0,38.45,22a3.05,3.05,0,0,0-1.83-2.46A9.51,9.51,0,0,0,31.92,18.45Z"/><path class="cls-4" d="M35.35,19.76l-.5-.29a.43.43,0,0,0-.35,0l-.4.24a3.6,3.6,0,0,0-1.62-.3,3,3,0,0,0-1.36.37c-.41.23-.61.47-.6.71a1.17,1.17,0,0,0,.37.78l.18.22a2.59,2.59,0,0,1,.44.59c.06.14,0,.25-.14.34a1.16,1.16,0,0,1-1.24-.1,2.74,2.74,0,0,1-.7-.57,1.85,1.85,0,0,1-.23-.34.18.18,0,0,0-.09-.08.48.48,0,0,0-.49,0l-.56.33c-.08,0-.11.11-.07.17a3.43,3.43,0,0,0,1,.87l-.46.27c-.1.06-.1.15,0,.21l.5.29a.36.36,0,0,0,.35,0l.49-.29a3.58,3.58,0,0,0,1.55.27,3.13,3.13,0,0,0,1.4-.39,1.11,1.11,0,0,0,.53-.52.62.62,0,0,0,0-.53,2.36,2.36,0,0,0-.47-.62c-.18-.2-.31-.34-.38-.44a.42.42,0,0,1-.1-.28.32.32,0,0,1,.19-.26.9.9,0,0,1,.58-.1,1.73,1.73,0,0,1,.66.23,1.67,1.67,0,0,1,.58.51c0,.09.11.18.15.27l.09.09a.62.62,0,0,0,.5,0l.57-.33a.27.27,0,0,0,0-.16,2.1,2.1,0,0,0-.26-.33,3.23,3.23,0,0,0-.45-.38l.38-.22a.12.12,0,0,0,0-.21"/><path class="cls-1" d="M37.61,19.51a4.49,4.49,0,0,0-1.75-1.68,8.94,8.94,0,0,0-3.25-1.06l-.41-.23H29.72l-.39.22A9,9,0,0,0,26,17.83a4.2,4.2,0,0,0-1.73,1.69l-.3.16v1.6a3.55,3.55,0,0,0,2.06,2.83,10.89,10.89,0,0,0,9.88,0,3.48,3.48,0,0,0,2-2.82V19.68Z"/><path class="cls-2" d="M35.86,16.78a10.87,10.87,0,0,0-9.87,0c-2.71,1.58-2.7,4.14,0,5.72a10.89,10.89,0,0,0,9.88,0c2.71-1.58,2.7-4.14,0-5.72"/><path class="cls-4" d="M30.92,16.07a9.47,9.47,0,0,0-4.69,1.12,3,3,0,0,0-1.79,2.44,3,3,0,0,0,1.82,2.46A9.66,9.66,0,0,0,31,23.21h0a9.58,9.58,0,0,0,4.69-1.12,3,3,0,0,0,1.79-2.44,3,3,0,0,0-1.82-2.46A9.66,9.66,0,0,0,30.92,16.07Z"/><path class="cls-2" d="M31.18,16.38a9.37,9.37,0,0,0-4.69,1.12,3,3,0,0,0-1.77,2.42,3.07,3.07,0,0,0,1.82,2.46,9.66,9.66,0,0,0,4.71,1.12h0a9.58,9.58,0,0,0,4.69-1.12,3,3,0,0,0,1.78-2.46,3,3,0,0,0-1.82-2.46A9.44,9.44,0,0,0,31.18,16.38Z"/><path class="cls-4" d="M34.62,17.69l-.5-.29a.38.38,0,0,0-.36,0l-.4.23a3.74,3.74,0,0,0-1.62-.3,3,3,0,0,0-1.36.37q-.6.36-.6.72a1.39,1.39,0,0,0,.37.77l.19.22a2.9,2.9,0,0,1,.44.6c.06.13,0,.25-.14.34a1.2,1.2,0,0,1-1.24-.1,2.61,2.61,0,0,1-.7-.58,1.5,1.5,0,0,1-.23-.33.2.2,0,0,0-.09-.09.55.55,0,0,0-.5,0l-.56.33c-.08.05-.11.12-.07.18a3.34,3.34,0,0,0,1,.87l-.53.29a.09.09,0,0,0-.1.1.1.1,0,0,0,.1.1l.5.29a.38.38,0,0,0,.36,0l.49-.28a3.73,3.73,0,0,0,1.55.27A3.14,3.14,0,0,0,32,21a1.14,1.14,0,0,0,.53-.51.72.72,0,0,0,0-.54,2.89,2.89,0,0,0-.47-.62c-.18-.19-.31-.34-.38-.43a.46.46,0,0,1-.11-.29c0-.09.07-.18.2-.25a.91.91,0,0,1,.58-.11,1.75,1.75,0,0,1,.66.24,1.64,1.64,0,0,1,.57.51,1.35,1.35,0,0,1,.15.26.22.22,0,0,0,.1.09.53.53,0,0,0,.49,0l.57-.33a.12.12,0,0,0,.08-.15,0,0,0,0,0,0,0,4,4,0,0,0-.26-.32,2.44,2.44,0,0,0-.46-.39l.36-.21c.1,0,.1-.14,0-.2"/><path class="cls-1" d="M37.4,17.43a4.49,4.49,0,0,0-1.75-1.68,8.94,8.94,0,0,0-3.25-1.06L32,14.46H29.47l-.39.22a9,9,0,0,0-3.3,1.07,4.2,4.2,0,0,0-1.73,1.69l-.3.16v1.6A3.55,3.55,0,0,0,25.81,22a10.89,10.89,0,0,0,9.88,0,3.48,3.48,0,0,0,2-2.82V17.6Z"/><path class="cls-2" d="M35.65,14.7a10.87,10.87,0,0,0-9.87,0c-2.71,1.58-2.7,4.14,0,5.72a10.89,10.89,0,0,0,9.88,0c2.71-1.58,2.7-4.14,0-5.72"/><path class="cls-3" d="M30.72,14A9.47,9.47,0,0,0,26,15.11a3,3,0,0,0-1.79,2.44A3,3,0,0,0,26.06,20a9.58,9.58,0,0,0,4.66,1.12h0A9.58,9.58,0,0,0,35.41,20a3,3,0,0,0,1.79-2.44,3,3,0,0,0-1.82-2.46A9.58,9.58,0,0,0,30.72,14Z"/><path class="cls-2" d="M31,14.3a9.37,9.37,0,0,0-4.69,1.12,3,3,0,0,0-1.79,2.44,3.07,3.07,0,0,0,1.82,2.46A9.66,9.66,0,0,0,31,21.44h0a9.48,9.48,0,0,0,4.7-1.12,3,3,0,0,0,1.78-2.4,3,3,0,0,0-1.78-2.5A9.48,9.48,0,0,0,31,14.3Z"/><path class="cls-1" d="M34.4,15.92l-.5-.29a.36.36,0,0,0-.35,0l-.4.23a3.89,3.89,0,0,0-1.62-.3,3.08,3.08,0,0,0-1.36.38c-.41.23-.61.47-.6.71a1.21,1.21,0,0,0,.36.77l.19.23a2.33,2.33,0,0,1,.44.59c.06.14,0,.25-.14.34a1.2,1.2,0,0,1-1.24-.1,2.74,2.74,0,0,1-.7-.57,2.54,2.54,0,0,1-.23-.34.26.26,0,0,0-.09-.09.53.53,0,0,0-.49,0l-.57.32c-.08.05-.1.12-.06.18a3.43,3.43,0,0,0,.95.87l-.47.27a.12.12,0,0,0,0,.21l.5.29a.43.43,0,0,0,.35,0l.49-.29a3.58,3.58,0,0,0,1.55.27,3.13,3.13,0,0,0,1.4-.39,1.11,1.11,0,0,0,.53-.52.64.64,0,0,0,0-.54,2.83,2.83,0,0,0-.47-.61l-.38-.44a.57.57,0,0,1-.11-.28.34.34,0,0,1,.2-.26.9.9,0,0,1,.58-.1,1.88,1.88,0,0,1,1.23.74l.16.26a.22.22,0,0,0,.09.1.6.6,0,0,0,.49,0l.57-.34c.08,0,.11-.11.07-.17a2.1,2.1,0,0,0-.26-.33,2.33,2.33,0,0,0-.45-.38l.37-.22c.1-.06.1-.15,0-.21"/><path class="cls-1" d="M16.72,17.08l-.5-.29a.38.38,0,0,0-.36,0l-.4.23a3.89,3.89,0,0,0-1.62-.3,3.08,3.08,0,0,0-1.36.38c-.4.23-.6.47-.6.71a1.27,1.27,0,0,0,.37.77,2,2,0,0,0,.19.22,2.85,2.85,0,0,1,.43.6c.07.14,0,.25-.13.34a1.2,1.2,0,0,1-1.24-.1,2.62,2.62,0,0,1-.71-.57,4,4,0,0,1-.23-.34.24.24,0,0,0-.08-.09.55.55,0,0,0-.5,0L9.42,19c-.08.05-.11.12-.07.18a3.21,3.21,0,0,0,1,.87l-.47.27c-.1.06-.1.15,0,.21l.5.28a.38.38,0,0,0,.36,0l.49-.28a3.44,3.44,0,0,0,1.55.27,3.14,3.14,0,0,0,1.4-.4,1.14,1.14,0,0,0,.53-.51.72.72,0,0,0,0-.54,2.89,2.89,0,0,0-.47-.62c-.18-.19-.31-.34-.38-.43a.43.43,0,0,1-.11-.28c0-.1.07-.18.2-.26a.81.81,0,0,1,.57-.1,1.58,1.58,0,0,1,.67.23,1.85,1.85,0,0,1,.57.51,1.35,1.35,0,0,1,.15.26.2.2,0,0,0,.09.09.55.55,0,0,0,.5,0l.57-.34c.08,0,.11-.11.07-.17a2.91,2.91,0,0,0-.26-.33,4.31,4.31,0,0,0-.46-.39l.38-.21c.1-.06.1-.15,0-.21"/></g></g><rect class="cls-6" width="45" height="45"/></svg>