<svg xmlns="http://www.w3.org/2000/svg" viewBox="0 0 111.72 32"><defs><style>.cls-1{fill:#2da4c2;}</style></defs><g id="Layer_2" data-name="Layer 2"><g id="Outline"><path class="cls-1" d="M.12,27.51,8.64,4.22A2,2,0,0,1,10.46,3h2.88a2,2,0,0,1,1.82,1.27l8.52,23.29a2,2,0,0,1-1.83,2.61H20.73a1.93,1.93,0,0,1-1.83-1.31l-1.27-3.67a2,2,0,0,0-1.83-1.31H8a2,2,0,0,0-1.84,1.3l-1.3,3.69A1.93,1.93,0,0,1,3,30.12H1.94A1.94,1.94,0,0,1,.12,27.51ZM10.67,20h2.41a1.93,1.93,0,0,0,1.83-2.58L13.7,13.91a1.94,1.94,0,0,0-3.66,0L8.83,17.37A2,2,0,0,0,10.67,20Z"/><path class="cls-1" d="M28.12,28.18V4.89A1.94,1.94,0,0,1,30.06,3H43.73a1.94,1.94,0,0,1,1.94,1.94V5a1.94,1.94,0,0,1-1.94,2H35a1.94,1.94,0,0,0-1.94,1.94v3.72A1.94,1.94,0,0,0,35,14.55h6.29a1.94,1.94,0,0,1,1.94,1.95v0a1.94,1.94,0,0,1-1.94,1.94H35a1.94,1.94,0,0,0-1.94,2v7.76a1.94,1.94,0,0,1-1.94,1.94H30.06A1.94,1.94,0,0,1,28.12,28.18Z"/><path class="cls-1" d="M49.51,28.18V4.89A1.94,1.94,0,0,1,51.45,3h1.09a1.94,1.94,0,0,1,1.94,1.94V8.94a1.94,1.94,0,0,0,3.37,1.31L64,3.58A1.94,1.94,0,0,1,65.39,3h.83a1.94,1.94,0,0,1,1.42,3.26l-6,6.44A2,2,0,0,0,61.44,15l7.63,12.15a1.94,1.94,0,0,1-1.64,3h-1.5a1.93,1.93,0,0,1-1.65-.92l-5.85-9.47a1.94,1.94,0,0,0-3.08-.3l-.36.39a1.94,1.94,0,0,0-.51,1.31v7.05a1.94,1.94,0,0,1-1.94,1.94H51.45A1.94,1.94,0,0,1,49.51,28.18Z"/><path class="cls-1" d="M104.46,8.21h.94a.89.89,0,1,1,0,1.77h-2.53a.9.9,0,0,1-.76-1.42l1.61-2.46.16-.25h-1.06a.88.88,0,1,1,0-1.76h2.65a.88.88,0,0,1,.82.47.85.85,0,0,1-.06.94l-1.58,2.44Z"/><path class="cls-1" d="M109.78,4.13h.94a.88.88,0,1,1,0,1.76c-.84,0-1.69,0-2.53,0a.85.85,0,0,1-.82-.46.86.86,0,0,1,.06-.95C108,3.66,108.5,2.84,109,2a2.22,2.22,0,0,0,.16-.25h-1a.91.91,0,0,1-1-.88.9.9,0,0,1,.94-.89h2.64a.88.88,0,0,1,.83.46.87.87,0,0,1-.06,1C111,2.22,110.48,3,110,3.84,109.9,3.92,109.86,4,109.78,4.13Z"/><path class="cls-1" d="M82.52,16.41a4.68,4.68,0,0,1-3.8-2.2,1.15,1.15,0,0,1,.3-1.56,1.19,1.19,0,0,1,1.62.17c.19.21.36.43.56.62a1.85,1.85,0,0,0,2.66,0c.21-.19.39-.43.59-.64a1.19,1.19,0,0,1,1.89,1.44A4.74,4.74,0,0,1,82.52,16.41Z"/><path class="cls-1" d="M93.73,16.41a4.72,4.72,0,0,1-3.82-2.18,1.19,1.19,0,0,1,1.9-1.42c.19.2.36.43.57.62a1.84,1.84,0,0,0,2.68,0c.21-.19.37-.42.56-.62a1.2,1.2,0,0,1,1.62-.16,1.17,1.17,0,0,1,.29,1.58A4.67,4.67,0,0,1,93.73,16.41Z"/><path class="cls-1" d="M90.85,18.27a3.2,3.2,0,0,0-5.32-.17,5.14,5.14,0,0,0,.17,6.31,3.16,3.16,0,0,0,4.86,0,4.75,4.75,0,0,0,1.16-3A5.28,5.28,0,0,0,90.85,18.27Zm-2.1,4.54a.74.74,0,0,1-1.23,0,2.71,2.71,0,0,1,0-3.38.74.74,0,0,1,1.21,0,2.63,2.63,0,0,1,.59,1.83A2.33,2.33,0,0,1,88.75,22.81Z"/><path class="cls-1" d="M88.13,32a15.24,15.24,0,1,1,15.24-15.24A15.26,15.26,0,0,1,88.13,32Zm0-28.22a13,13,0,1,0,13,13A13,13,0,0,0,88.13,3.78Z"/></g></g></svg>