<?xml version="1.0" encoding="UTF-8" ?>
<!DOCTYPE svg PUBLIC "-//W3C//DTD SVG 1.1//EN" "http://www.w3.org/Graphics/SVG/1.1/DTD/svg11.dtd">
<svg width="192pt" height="192pt" viewBox="0 0 192 192" version="1.1" xmlns="http://www.w3.org/2000/svg">
<g id="#f2f4f7ff">
<path fill="#f2f4f7" opacity="1.00" d=" M 93.22 0.00 L 98.73 0.00 C 121.55 0.62 144.02 9.64 160.77 25.18 C 179.85 42.39 191.33 67.57 192.00 93.24 L 192.00 98.84 C 191.35 121.64 182.32 144.08 166.79 160.80 C 149.59 179.86 124.44 191.32 98.79 192.00 L 93.31 192.00 C 70.47 191.39 47.96 182.36 31.21 166.79 C 12.14 149.59 0.67 124.43 0.00 98.76 L 0.00 93.15 C 0.67 67.74 11.95 42.87 30.68 25.68 C 47.48 9.87 70.18 0.64 93.22 0.00 M 97.27 26.77 C 84.55 47.80 71.67 68.73 58.78 89.64 C 57.30 92.12 55.47 94.45 54.71 97.28 C 67.73 105.37 81.26 112.66 94.44 120.49 C 95.77 121.23 97.06 122.27 98.67 122.18 L 98.59 121.75 C 112.70 113.69 126.75 105.52 140.84 97.43 C 126.92 74.26 112.54 51.34 98.31 28.36 L 98.43 27.99 C 98.14 27.69 97.56 27.08 97.27 26.77 M 54.53 105.71 C 67.50 124.56 81.45 142.73 94.73 161.37 C 95.69 162.77 96.75 164.10 97.92 165.34 C 98.02 164.98 98.22 164.25 98.32 163.88 C 112.45 144.58 126.49 125.20 140.52 105.82 C 126.07 113.78 111.88 122.21 97.56 130.40 C 83.15 122.28 69.01 113.70 54.53 105.71 Z" />
</g>
<g id="#828384ff">
<path fill="#828384" opacity="1.00" d=" M 97.27 26.77 C 97.56 27.08 98.14 27.69 98.43 27.99 L 98.31 28.36 C 97.63 30.15 97.52 32.08 97.57 33.99 C 97.76 48.63 97.43 63.28 97.74 77.93 C 83.29 84.13 69.16 91.06 54.71 97.28 C 55.47 94.45 57.30 92.12 58.78 89.64 C 71.67 68.73 84.55 47.80 97.27 26.77 Z" />
<path fill="#828384" opacity="1.00" d=" M 54.53 105.71 C 69.01 113.70 83.15 122.28 97.56 130.40 C 97.69 140.26 97.61 150.13 97.59 160.00 C 97.58 161.33 97.83 162.63 98.32 163.88 C 98.22 164.25 98.02 164.98 97.92 165.34 C 96.75 164.10 95.69 162.77 94.73 161.37 C 81.45 142.73 67.50 124.56 54.53 105.71 Z" />
</g>
<g id="#313232ff">
<path fill="#313232" opacity="1.00" d=" M 97.57 33.99 C 97.52 32.08 97.63 30.15 98.31 28.36 C 112.54 51.34 126.92 74.26 140.84 97.43 C 137.56 96.69 134.78 94.80 131.86 93.25 C 120.50 88.11 108.81 83.69 97.74 77.93 C 97.43 63.28 97.76 48.63 97.57 33.99 Z" />
<path fill="#313232" opacity="1.00" d=" M 54.71 97.28 C 69.16 91.06 83.29 84.13 97.74 77.93 C 98.28 87.26 97.80 96.61 97.97 105.95 C 98.16 111.21 97.40 116.56 98.59 121.75 L 98.67 122.18 C 97.06 122.27 95.77 121.23 94.44 120.49 C 81.26 112.66 67.73 105.37 54.71 97.28 Z" />
<path fill="#313232" opacity="1.00" d=" M 97.56 130.40 C 111.88 122.21 126.07 113.78 140.52 105.82 C 126.49 125.20 112.45 144.58 98.32 163.88 C 97.83 162.63 97.58 161.33 97.59 160.00 C 97.61 150.13 97.69 140.26 97.56 130.40 Z" />
</g>
<g id="#131313ff">
<path fill="#131313" opacity="1.00" d=" M 97.74 77.93 C 108.81 83.69 120.50 88.11 131.86 93.25 C 134.78 94.80 137.56 96.69 140.84 97.43 C 126.75 105.52 112.70 113.69 98.59 121.75 C 97.40 116.56 98.16 111.21 97.97 105.95 C 97.80 96.61 98.28 87.26 97.74 77.93 Z" />
</g>
</svg>
