<?xml version="1.0" encoding="utf-8"?>
<svg shape-rendering="geometricPrecision" image-rendering="optimizeQuality" fill-rule="nonzero" viewBox="0 0 444.44 444.44" xmlns="http://www.w3.org/2000/svg">
  <path fill="#f5ac37" d="M 113.119 0 C 175.599 0 226.239 50.65 226.239 113.119 C 226.239 175.599 175.599 226.239 113.119 226.239 C 50.65 226.239 0 175.594 0 113.119 C 0 50.65 50.65 0 113.119 0 Z" style=""/>
  <path fill="#fefefd" d="M 117.288 121.106 L 160.272 121.106 C 161.188 121.106 161.621 121.106 161.687 119.905 C 162.038 115.532 162.038 111.134 161.687 106.756 C 161.687 105.906 161.265 105.555 160.343 105.555 L 74.799 105.555 C 73.74 105.555 73.455 105.906 73.455 106.899 L 73.455 119.482 C 73.455 121.106 73.455 121.106 75.15 121.106 L 117.288 121.106 Z M 156.887 90.849 C 157.009 90.528 157.009 90.177 156.887 89.861 C 156.173 88.301 155.318 86.81 154.331 85.407 C 152.845 83.015 151.094 80.81 149.098 78.83 C 148.157 77.634 147.067 76.56 145.846 75.649 C 139.727 70.441 132.453 66.756 124.634 64.903 C 120.689 64.017 116.657 63.595 112.615 63.63 L 74.651 63.63 C 73.592 63.63 73.45 64.053 73.45 64.974 L 73.45 90.07 C 73.45 91.129 73.45 91.414 74.794 91.414 L 156.378 91.414 C 156.378 91.414 157.085 91.271 157.228 90.849 L 156.882 90.849 Z M 156.887 135.812 C 155.686 135.68 154.474 135.68 153.273 135.812 L 74.87 135.812 C 73.811 135.812 73.455 135.812 73.455 137.228 L 73.455 161.763 C 73.455 162.894 73.455 163.179 74.87 163.179 L 111.068 163.179 C 112.799 163.311 114.529 163.189 116.225 162.827 C 121.479 162.452 126.65 161.308 131.572 159.432 C 133.364 158.811 135.095 158.002 136.729 157.029 L 137.223 157.029 C 145.708 152.616 152.601 145.683 156.948 137.172 C 156.948 137.172 157.442 136.103 156.887 135.823 Z M 59.247 175.9 L 59.247 175.477 L 59.247 159.004 L 59.247 153.42 L 59.247 136.805 C 59.247 135.884 59.247 135.746 58.117 135.746 L 42.775 135.746 C 41.925 135.746 41.573 135.746 41.573 134.616 L 41.573 121.183 L 57.975 121.183 C 58.891 121.183 59.247 121.183 59.247 119.981 L 59.247 106.69 C 59.247 105.84 59.247 105.631 58.117 105.631 L 42.775 105.631 C 41.925 105.631 41.573 105.631 41.573 104.501 L 41.573 92.06 C 41.573 91.281 41.573 91.073 42.704 91.073 L 57.904 91.073 C 58.962 91.073 59.247 91.073 59.247 89.729 L 59.247 51.622 C 59.247 50.492 59.247 50.207 60.663 50.207 L 113.684 50.207 C 117.533 50.36 121.356 50.782 125.138 51.479 C 132.931 52.92 140.419 55.704 147.266 59.68 C 151.807 62.353 155.986 65.58 159.707 69.296 C 162.507 72.203 165.032 75.348 167.271 78.698 C 169.496 82.093 171.344 85.723 172.794 89.515 C 172.975 90.504 173.915 91.165 174.907 91.001 L 187.562 91.001 C 189.186 91.001 189.186 91.001 189.257 92.559 L 189.257 104.155 C 189.257 105.285 188.834 105.57 187.699 105.57 L 177.941 105.57 C 176.953 105.57 176.668 105.57 176.739 106.843 C 177.126 111.146 177.126 115.475 176.739 119.778 C 176.739 120.979 176.739 121.122 178.088 121.122 L 189.252 121.122 C 189.746 121.758 189.252 122.394 189.252 123.036 C 189.323 123.855 189.323 124.685 189.252 125.504 L 189.252 134.061 C 189.252 135.263 188.9 135.619 187.837 135.619 L 174.474 135.619 C 173.543 135.441 172.637 136.036 172.423 136.963 C 169.238 145.239 164.152 152.65 157.574 158.597 C 155.171 160.761 152.647 162.797 150.01 164.675 C 147.179 166.304 144.425 167.999 141.524 169.343 C 136.184 171.746 130.585 173.517 124.838 174.642 C 119.381 175.62 113.847 176.062 108.294 175.986 L 59.227 175.986 L 59.227 175.915 Z" style=""/>
  <path d="M 331.024 228.562 C 394.105 228.562 444.86 177.807 444.86 114.726 C 444.86 51.645 394.105 0.891 331.024 0.891 C 267.943 0.891 217.189 51.645 217.189 114.726 C 217.189 177.807 267.943 228.562 331.024 228.562 Z" fill="#2775ca" style="" transform="matrix(-1, 0, 0, -1, 662.048981, 229.45299)"/>
  <path d="M 362.33 129.906 C 362.33 113.299 352.362 107.614 332.452 105.244 C 318.214 103.344 315.372 99.547 315.372 92.905 C 315.372 86.265 320.114 81.996 329.596 81.996 C 338.138 81.996 342.879 84.848 345.251 91.962 C 345.732 93.378 347.149 94.333 348.575 94.333 L 356.161 94.333 C 358.058 94.333 359.486 92.905 359.486 91.006 L 359.486 90.534 C 357.586 80.095 349.048 72.039 338.138 71.085 L 338.138 59.703 C 338.138 57.803 336.71 56.387 334.341 55.905 L 327.227 55.905 C 325.328 55.905 323.912 57.331 323.43 59.703 L 323.43 70.613 C 309.203 72.51 300.193 81.996 300.193 93.861 C 300.193 109.513 309.676 115.671 329.596 118.043 C 342.879 120.412 347.149 123.265 347.149 130.85 C 347.149 138.447 340.507 143.661 331.497 143.661 C 319.169 143.661 314.901 138.447 313.473 131.323 C 313.001 129.434 311.575 128.481 310.159 128.481 L 302.091 128.481 C 300.193 128.481 298.766 129.906 298.766 131.806 L 298.766 132.278 C 300.665 144.132 308.26 152.671 323.912 155.043 L 323.912 166.425 C 323.912 168.324 325.328 169.75 327.699 170.222 L 334.821 170.222 C 336.71 170.222 338.138 168.797 338.609 166.425 L 338.609 155.043 C 352.845 152.671 362.33 142.705 362.33 129.906 Z M 306.832 179.708 C 269.832 166.425 250.864 125.165 264.618 88.637 C 271.732 68.713 287.383 53.534 306.832 46.421 C 308.732 45.476 309.676 44.051 309.676 41.679 L 309.676 35.039 C 309.676 33.139 308.732 31.725 306.832 31.242 C 306.359 31.242 305.406 31.242 304.935 31.725 C 259.877 45.949 235.213 93.861 249.439 138.918 C 257.977 165.481 278.37 185.874 304.935 194.415 C 306.832 195.358 308.732 194.415 309.203 192.515 C 309.676 192.043 309.676 191.561 309.676 190.617 L 309.676 183.976 C 309.676 182.549 308.26 180.661 306.832 179.708 Z M 357.115 31.725 C 355.217 30.769 353.317 31.725 352.845 33.621 C 352.362 34.094 352.362 34.566 352.362 35.51 L 352.362 42.151 C 352.362 44.051 353.79 45.949 355.217 46.904 C 392.206 60.175 411.185 101.445 397.43 137.963 C 390.308 157.887 374.656 173.066 355.217 180.179 C 353.317 181.132 352.362 182.549 352.362 184.921 L 352.362 191.561 C 352.362 193.459 353.317 194.887 355.217 195.358 C 355.689 195.358 356.633 195.358 357.115 194.887 C 402.174 180.661 426.836 132.75 412.612 87.692 C 404.071 60.656 383.196 40.252 357.115 31.725 Z" fill="#fff" style="" transform="matrix(-1, 0, 0, -1, 662.050247, 226.599998)"/>
  <path d="M 141.93 220.05 L 94.586 319.498 C 94.215 320.258 94.383 321.169 94.998 321.748 L 222.866 444.275 C 223.62 444.999 224.812 444.999 225.566 444.275 L 353.434 321.755 C 354.049 321.177 354.217 320.265 353.847 319.506 L 306.502 220.057 C 306.189 219.376 305.508 218.94 304.758 218.941 L 143.689 218.941 C 142.936 218.932 142.247 219.366 141.93 220.05 L 141.93 220.05 Z" fill="#50af95" style=""/>
  <path d="M 240.644 329.711 L 240.644 329.711 C 239.726 329.78 234.984 330.063 224.403 330.063 C 215.989 330.063 210.015 329.81 207.919 329.711 L 207.919 329.711 C 175.398 328.281 151.125 322.619 151.125 315.841 C 151.125 309.065 175.398 303.411 207.919 301.958 L 207.919 324.073 C 210.044 324.226 216.133 324.586 224.549 324.586 C 234.647 324.586 239.704 324.164 240.613 324.081 L 240.613 301.973 C 273.065 303.419 297.284 309.079 297.284 315.841 C 297.284 322.604 273.072 328.265 240.613 329.704 L 240.613 329.704 Z M 240.644 299.686 L 240.644 279.895 L 285.932 279.895 L 285.932 249.717 L 162.631 249.717 L 162.631 279.895 L 207.91 279.895 L 207.91 299.677 C 171.107 301.369 143.429 308.658 143.429 317.395 C 143.429 326.131 171.107 333.414 207.91 335.112 L 207.91 398.529 L 240.637 398.529 L 240.637 335.088 C 277.356 333.398 304.987 326.116 304.987 317.388 C 304.987 308.658 277.379 301.376 240.637 299.677 L 240.637 299.677 Z M 240.644 299.686 L 240.644 299.686 Z" fill="#fff" style=""/>
</svg>