<?xml version="1.0" encoding="UTF-8" ?>
<!DOCTYPE svg PUBLIC "-//W3C//DTD SVG 1.1//EN" "http://www.w3.org/Graphics/SVG/1.1/DTD/svg11.dtd">
<svg width="877pt" height="675pt" viewBox="0 0 877 675" version="1.1" xmlns="http://www.w3.org/2000/svg">
<g id="#2b6defff">
<path fill="#2b6def" opacity="1.00" d=" M 0.82 84.89 C 49.43 56.71 98.09 28.63 146.81 0.63 C 292.59 84.84 438.42 168.93 584.21 253.12 L 584.22 253.60 C 572.78 259.47 561.89 266.38 550.67 272.65 C 513.32 294.23 475.95 315.78 438.59 337.33 C 437.61 336.99 436.66 336.63 435.72 336.24 C 296.90 256.07 158.03 175.99 19.22 95.80 C 13.05 92.42 7.13 88.57 0.78 85.52 L 0.82 84.89 Z" />
<path fill="#2b6def" opacity="1.00" d=" M 584.31 84.81 C 632.98 56.81 681.59 28.69 730.22 0.63 C 778.88 28.63 827.51 56.68 876.08 84.82 L 876.21 85.37 C 827.35 113.03 779.01 141.64 730.16 169.33 C 692.62 147.77 655.18 126.01 617.64 104.46 C 606.61 97.77 595.06 91.94 584.31 84.81 Z" />
</g>
<g id="#2891f9ff">
<path fill="#2891f9" opacity="1.00" d=" M 584.21 253.12 C 584.35 197.02 584.15 140.91 584.31 84.81 C 595.06 91.94 606.61 97.77 617.64 104.46 C 655.18 126.01 692.62 147.77 730.16 169.33 C 730.33 327.88 730.16 486.43 730.24 644.99 C 730.11 654.79 730.53 664.61 729.92 674.39 C 681.38 646.40 632.88 618.30 584.29 590.39 C 584.20 534.29 584.29 478.18 584.24 422.07 C 584.19 365.91 584.25 309.76 584.22 253.60 L 584.21 253.12 Z" />
<path fill="#2891f9" opacity="1.00" d=" M 0.78 85.52 C 7.13 88.57 13.05 92.42 19.22 95.80 C 158.03 175.99 296.90 256.07 435.72 336.24 C 436.66 336.63 437.61 336.99 438.59 337.33 C 437.95 342.20 438.29 347.12 438.23 352.02 C 438.19 403.39 438.24 454.76 438.21 506.13 C 389.85 477.90 341.16 450.22 292.79 422.00 C 285.39 416.99 277.34 413.01 269.71 408.36 C 230.57 385.78 191.43 363.20 152.31 340.59 C 150.59 339.57 148.80 338.70 146.96 337.93 C 146.79 339.28 146.67 340.64 146.59 342.01 C 146.68 438.66 146.58 535.32 146.64 631.98 C 146.81 646.11 146.15 660.29 147.09 674.39 L 146.90 675.00 L 146.50 675.00 C 146.46 674.84 146.37 674.53 146.33 674.37 C 97.81 646.32 49.22 618.38 0.73 590.28 C 0.80 422.03 0.70 253.78 0.78 85.52 Z" />
</g>
<g id="#2bbdf7ff">
<path fill="#2bbdf7" opacity="1.00" d=" M 730.16 169.33 C 779.01 141.64 827.35 113.03 876.21 85.37 C 876.32 253.67 876.19 421.98 876.27 590.28 C 827.78 618.38 779.20 646.33 730.67 674.36 C 730.63 674.52 730.55 674.84 730.51 675.00 L 730.12 675.00 L 729.92 674.39 C 730.53 664.61 730.11 654.79 730.24 644.99 C 730.16 486.43 730.33 327.88 730.16 169.33 Z" />
<path fill="#2bbdf7" opacity="1.00" d=" M 550.67 272.65 C 561.89 266.38 572.78 259.47 584.22 253.60 C 584.25 309.76 584.19 365.91 584.24 422.07 C 547.64 443.22 511.02 464.33 474.41 485.46 C 462.32 492.31 450.45 499.58 438.21 506.13 C 438.24 454.76 438.19 403.39 438.23 352.02 C 438.29 347.12 437.95 342.20 438.59 337.33 C 475.95 315.78 513.32 294.23 550.67 272.65 Z" />
<path fill="#2bbdf7" opacity="1.00" d=" M 146.96 337.93 C 148.80 338.70 150.59 339.57 152.31 340.59 C 191.43 363.20 230.57 385.78 269.71 408.36 C 277.34 413.01 285.39 416.99 292.79 422.00 C 292.65 478.14 292.84 534.28 292.70 590.41 C 244.11 618.30 195.62 646.40 147.09 674.39 C 146.15 660.29 146.81 646.11 146.64 631.98 C 146.58 535.32 146.68 438.66 146.59 342.01 C 146.67 340.64 146.79 339.28 146.96 337.93 Z" />
</g>
</svg>
