<svg xmlns="http://www.w3.org/2000/svg" xmlns:xlink="http://www.w3.org/1999/xlink" viewBox="0 0 50 50"><defs><style>.cls-1{fill:#fff;}.cls-2{fill:url(#linear-gradient);}.cls-3{fill:url(#linear-gradient-2);}.cls-4{fill:url(#linear-gradient-3);}.cls-5{fill:url(#linear-gradient-4);}.cls-6{fill:url(#linear-gradient-5);}.cls-7{fill:url(#linear-gradient-6);}.cls-8{fill:url(#linear-gradient-7);}.cls-9{fill:url(#linear-gradient-8);}.cls-10{fill:url(#linear-gradient-9);}.cls-11{fill:url(#linear-gradient-10);}.cls-12{fill:url(#linear-gradient-11);}.cls-13{fill:url(#linear-gradient-12);}.cls-14{fill:url(#linear-gradient-13);}</style><linearGradient id="linear-gradient" x1="7" y1="-162.71387" x2="27.01492" y2="-162.71387" gradientTransform="matrix(1, 0, 0, -1, 0, -152.60348)" gradientUnits="userSpaceOnUse"><stop offset="0" stop-color="#001c3a"/><stop offset="0.57" stop-color="#001e3d"/><stop offset="0.69" stop-color="#001f3f"/><stop offset="1" stop-color="#002042"/></linearGradient><linearGradient id="linear-gradient-2" y1="-167.62612" x2="32.69377" y2="-167.62612" xlink:href="#linear-gradient"/><linearGradient id="linear-gradient-3" y1="-170.07414" x2="35.5193" y2="-170.07414" xlink:href="#linear-gradient"/><linearGradient id="linear-gradient-4" y1="-172.52447" x2="38.34483" y2="-172.52447" xlink:href="#linear-gradient"/><linearGradient id="linear-gradient-5" y1="-174.97481" x2="41.17035" y2="-174.97481" xlink:href="#linear-gradient"/><linearGradient id="linear-gradient-6" y1="-177.42283" x2="43" y2="-177.42283" xlink:href="#linear-gradient"/><linearGradient id="linear-gradient-7" x1="8.83428" y1="-179.76894" x2="43" y2="-179.76894" xlink:href="#linear-gradient"/><linearGradient id="linear-gradient-8" x1="11.6598" y1="-182.23317" x2="43" y2="-182.23317" xlink:href="#linear-gradient"/><linearGradient id="linear-gradient-9" x1="14.4807" y1="-184.66729" x2="43" y2="-184.66729" xlink:href="#linear-gradient"/><linearGradient id="linear-gradient-10" x1="17.30623" y1="-187.11531" x2="43" y2="-187.11531" xlink:href="#linear-gradient"/><linearGradient id="linear-gradient-11" x1="20.13175" y1="-189.57954" x2="43" y2="-189.57954" xlink:href="#linear-gradient"/><linearGradient id="linear-gradient-12" x1="22.98507" y1="-192.02756" x2="43" y2="-192.02756" xlink:href="#linear-gradient"/><linearGradient id="linear-gradient-13" y1="-165.16189" x2="29.86824" y2="-165.16189" xlink:href="#linear-gradient"/></defs><g id="RENBTC"><circle class="cls-1" cx="25" cy="25" r="25"/><g id="Layer_2" data-name="Layer 2"><g id="Layer_1-2" data-name="Layer 1-2"><polygon class="cls-2" points="12.591 13.251 15.565 11.537 15.986 12.227 27.015 5.858 26.204 5.376 25.389 4.927 25 4.686 7 15.085 7 15.534 12.169 12.561 12.591 13.251"/><polygon class="cls-3" points="12.591 19.801 21.243 14.812 21.633 15.507 32.694 9.133 31.883 8.651 31.073 8.202 30.679 7.961 7 21.602 7 22.084 12.169 19.11 12.591 19.801"/><polygon class="cls-4" points="12.591 23.075 24.069 16.438 24.458 17.128 35.519 10.759 34.709 10.305 33.893 9.823 33.504 9.582 7 24.882 7 25.359 12.169 22.357 12.591 23.075"/><polygon class="cls-5" points="12.591 26.322 26.983 18.027 27.376 18.721 38.345 12.38 37.53 11.926 36.719 11.449 36.33 11.236 7 28.157 7 28.606 12.169 25.632 12.591 26.322"/><polygon class="cls-6" points="12.591 29.597 29.808 19.652 30.202 20.375 41.17 14.034 40.355 13.552 39.577 13.098 39.155 12.862 7 31.432 7 31.881 12.169 28.907 12.591 29.597"/><polygon class="cls-7" points="42.398 14.724 41.981 14.483 7 34.706 7 35.156 12.169 32.182 12.591 32.872 29.808 22.927 30.202 23.617 43 16.257 43 15.326 43 15.085 42.398 14.724"/><polygon class="cls-8" points="9.223 37.143 12.109 35.489 12.531 36.179 29.72 26.234 30.137 26.952 43 19.499 43 18.568 43 17.637 43 17.188 8.834 36.902 9.223 37.143"/><polyline class="cls-9" points="29.72 29.509 30.137 30.232 43 22.779 43 21.843 43 20.912 43 20.463 11.66 38.556 12.049 38.796 14.995 37.083 15.412 37.773"/><polygon class="cls-10" points="14.874 40.418 17.848 38.704 18.237 39.426 29.72 32.784 30.137 33.474 43 26.054 43 25.123 43 24.187 43 23.71 14.481 40.177 14.874 40.418"/><polygon class="cls-11" points="17.728 42.039 20.674 40.357 21.063 41.048 29.72 36.059 30.137 36.749 43 29.329 43 28.398 43 27.467 43 26.985 17.306 41.83 17.728 42.039"/><polygon class="cls-12" points="20.132 43.452 20.553 43.692 23.499 41.979 23.888 42.701 29.72 39.334 30.137 40.029 43 32.603 43 31.672 43 30.709 43 30.26 20.132 43.452"/><polygon class="cls-13" points="23.379 45.314 26.325 43.632 26.742 44.322 29.72 42.581 30.137 43.303 43 35.878 43 34.919 43 33.988 43 33.534 22.985 45.105 23.379 45.314"/><polygon class="cls-14" points="29.868 7.479 29.058 7.03 29.058 7.03 28.247 6.548 27.826 6.308 7 18.36 7 18.809 12.169 15.836 12.591 16.526 18.418 13.163 18.812 13.853 29.868 7.479"/></g></g></g></svg>